<svg width="100" height="120" viewBox="0 0 100 120" fill="none" xmlns="http://www.w3.org/2000/svg">
<path d="M77.02 58.46C84.0467 60.0467 89.6 63.56 93.68 69C97.8733 74.3267 99.97 80.4467 99.97 87.36C99.97 97.56 96.4567 105.55 89.43 111.33C82.4033 117.11 72.5433 120 59.85 120H0.52V0.149993H57.98C70.22 0.149993 79.7967 2.86999 86.71 8.31C93.7367 13.75 97.25 21.4 97.25 31.26C97.25 38.2867 95.38 44.18 91.64 48.94C88.0133 53.5867 83.14 56.76 77.02 58.46ZM33.84 47.75H50.67C59.0567 47.75 63.25 44.2933 63.25 37.38C63.25 30.24 59.0567 26.67 50.67 26.67H33.84V47.75ZM53.22 93.14C61.6067 93.14 65.8 89.6267 65.8 82.6C65.8 78.9733 64.6667 76.1967 62.4 74.27C60.2467 72.3433 57.13 71.38 53.05 71.38H33.84V93.14H53.22Z" fill="white" fill-opacity="0.2"/>
</svg>
