<svg width="118" height="123" viewBox="0 0 118 123" fill="none" xmlns="http://www.w3.org/2000/svg">
<path d="M0.44 61.82C0.44 50.0333 2.87667 39.55 7.75 30.37C12.7367 21.0767 19.7633 13.88 28.83 8.78C37.8967 3.56666 48.3233 0.959998 60.11 0.959998C75.07 0.959998 87.65 4.98333 97.85 13.03C108.05 20.9633 114.623 31.7867 117.57 45.5H81.7C79.5467 40.9667 76.5433 37.51 72.69 35.13C68.95 32.75 64.5867 31.56 59.6 31.56C51.8933 31.56 45.7167 34.3367 41.07 39.89C36.5367 45.33 34.27 52.64 34.27 61.82C34.27 71.1133 36.5367 78.5367 41.07 84.09C45.7167 89.53 51.8933 92.25 59.6 92.25C64.5867 92.25 68.95 91.06 72.69 88.68C76.5433 86.3 79.5467 82.8433 81.7 78.31H117.57C114.623 92.0233 108.05 102.903 97.85 110.95C87.65 118.883 75.07 122.85 60.11 122.85C48.3233 122.85 37.8967 120.3 28.83 115.2C19.7633 109.987 12.7367 102.79 7.75 93.61C2.87667 84.3167 0.44 73.72 0.44 61.82Z" fill="white" fill-opacity="0.2"/>
</svg>
