<svg width="80" height="80" viewBox="0 0 80 80" fill="none" xmlns="http://www.w3.org/2000/svg">
<circle cx="40" cy="40" r="40" fill="#4744A0"/>
<path d="M39.867 32.5323L40.8503 34.8323C40.917 35.0323 41.1003 35.149 41.2836 35.1657L43.7836 35.399C44.317 35.449 44.517 36.099 44.1336 36.449L42.2503 38.099C42.1003 38.2323 42.0336 38.4323 42.0836 38.6157L42.6336 41.0657C42.7503 41.5823 42.2003 41.9823 41.7336 41.7157L39.5836 40.4323C39.417 40.3323 39.2003 40.3323 39.0336 40.4323L36.8836 41.7157C36.4336 41.9823 35.867 41.5823 35.9836 41.0657L36.5336 38.6157C36.5836 38.4323 36.517 38.2323 36.367 38.099L34.4836 36.449C34.0836 36.099 34.3003 35.449 34.8336 35.399L37.3336 35.1657C37.5336 35.149 37.7003 35.0323 37.7836 34.849L38.767 32.549C38.967 32.049 39.6503 32.049 39.867 32.5323Z" stroke="white" stroke-width="1.66667" stroke-miterlimit="10" stroke-linecap="round" stroke-linejoin="round"/>
<path d="M50.6451 37.4086C50.6881 31.1494 45.6489 26.0403 39.3897 25.9973C33.1305 25.9542 28.0215 30.9934 27.9784 37.2526C27.9353 43.5118 32.9745 48.6209 39.2337 48.6639C45.493 48.707 50.602 43.6678 50.6451 37.4086Z" stroke="white" stroke-width="1.66667" stroke-miterlimit="10" stroke-linecap="round" stroke-linejoin="round"/>
<path d="M37.7667 48.5505L34.95 55.6339L31.3833 51.5505L26 52.0505L29.5667 43.1172" stroke="white" stroke-width="1.66667" stroke-miterlimit="10" stroke-linecap="round" stroke-linejoin="round"/>
<path d="M40.833 48.5505L43.6663 55.6339L47.2163 51.5505L52.6163 52.0505L49.033 43.1172" stroke="white" stroke-width="1.66667" stroke-miterlimit="10" stroke-linecap="round" stroke-linejoin="round"/>
</svg>
