<svg width="80" height="80" viewBox="0 0 80 80" fill="none" xmlns="http://www.w3.org/2000/svg">
<circle cx="40" cy="40" r="40" fill="#4744A0"/>
<path d="M42.9831 34.4793C42.9831 34.4793 41.2831 32.9793 38.2998 34.0293C35.5498 34.9793 35.6831 38.746 39.8498 39.746" stroke="white" stroke-width="2" stroke-miterlimit="10" stroke-linecap="round" stroke-linejoin="round"/>
<path d="M36.4492 44.9474C36.4492 44.9474 38.1492 46.4474 41.1326 45.3974C43.8992 44.4307 43.7659 40.6641 39.5826 39.6641" stroke="white" stroke-width="2" stroke-miterlimit="10" stroke-linecap="round" stroke-linejoin="round"/>
<path d="M40.0165 33.6648V31.2148" stroke="white" stroke-width="2" stroke-miterlimit="10" stroke-linecap="round" stroke-linejoin="round"/>
<path d="M40.0166 48.2156V45.7656" stroke="white" stroke-width="2" stroke-miterlimit="10" stroke-linecap="round" stroke-linejoin="round"/>
<path d="M39.7173 55.1026C48.2133 55.1026 55.1006 48.2153 55.1006 39.7193C55.1006 31.2233 48.2133 24.3359 39.7173 24.3359C31.2213 24.3359 24.334 31.2233 24.334 39.7193C24.334 48.2153 31.2213 55.1026 39.7173 55.1026Z" stroke="white" stroke-width="2" stroke-miterlimit="10" stroke-linecap="round" stroke-linejoin="round"/>
</svg>
