<svg width="80" height="80" viewBox="0 0 80 80" fill="none" xmlns="http://www.w3.org/2000/svg">
<circle cx="40" cy="40" r="40" fill="#4744A0"/>
<path d="M48.6155 35.8973C50.3418 33.6716 49.937 30.4679 47.7113 28.7415C45.4856 27.0152 42.2818 27.42 40.5555 29.6458C38.8292 31.8715 39.234 35.0752 41.4597 36.8016C43.6854 38.5279 46.8892 38.1231 48.6155 35.8973Z" stroke="white" stroke-width="2" stroke-miterlimit="10" stroke-linecap="round" stroke-linejoin="round"/>
<path d="M34.7344 51.432C34.7344 45.9987 39.151 41.582 44.5844 41.582C50.0177 41.582 54.4344 45.9987 54.4344 51.432" stroke="white" stroke-width="2" stroke-miterlimit="10" stroke-linecap="round" stroke-linejoin="round"/>
<path d="M34.357 35.9996C35.2875 34.2634 34.6344 32.1016 32.8982 31.171C31.162 30.2405 29.0002 30.8936 28.0697 32.6298C27.1391 34.366 27.7922 36.5278 29.5284 37.4583C31.2646 38.3889 33.4264 37.7358 34.357 35.9996Z" stroke="white" stroke-width="2" stroke-miterlimit="10" stroke-linecap="round" stroke-linejoin="round"/>
<path d="M24.334 47.3521C24.334 43.5521 27.4173 40.4688 31.2173 40.4688C34.034 40.4688 36.4507 42.1521 37.5173 44.5854" stroke="white" stroke-width="2" stroke-miterlimit="10" stroke-linecap="round" stroke-linejoin="round"/>
</svg>
