<svg width="111" height="120" viewBox="0 0 111 120" fill="none" xmlns="http://www.w3.org/2000/svg">
<path d="M47.95 0.149993C60.53 0.149993 71.5233 2.69999 80.93 7.8C90.45 12.7867 97.76 19.8133 102.86 28.88C107.96 37.9467 110.51 48.3167 110.51 59.99C110.51 71.55 107.903 81.8633 102.69 90.93C97.59 99.9967 90.28 107.137 80.76 112.35C71.3533 117.45 60.4167 120 47.95 120H0.52V0.149993H47.95ZM45.4 90.59C55.1467 90.59 62.7967 87.9267 68.35 82.6C73.9033 77.2733 76.68 69.7367 76.68 59.99C76.68 50.13 73.9033 42.5367 68.35 37.21C62.7967 31.77 55.1467 29.05 45.4 29.05H33.84V90.59H45.4Z" fill="white" fill-opacity="0.2"/>
</svg>
