<svg width="34" height="34" viewBox="0 0 34 34" fill="none" xmlns="http://www.w3.org/2000/svg">
<path d="M17 0C26.367 0 34 7.616 34 17C34 26.367 26.367 34 17 34C7.616 34 0 26.367 0 17C0 7.616 7.616 0 17 0ZM12.002 13.651C11.509 13.141 10.693 13.141 10.2 13.634C9.69 14.144 9.69 14.943 10.2 15.436L16.099 21.369C16.337 21.607 16.66 21.743 17 21.743C17.34 21.743 17.663 21.607 17.901 21.369L23.8 15.436C24.055 15.198 24.174 14.875 24.174 14.552C24.174 14.212 24.055 13.889 23.8 13.634C23.29 13.141 22.491 13.141 21.998 13.651L17 18.666L12.002 13.651Z" fill="white"/>
</svg>
