<svg width="23" height="31" viewBox="0 0 23 31" fill="none" xmlns="http://www.w3.org/2000/svg">
<path d="M5.123 14.517C2.809 13.243 1.652 11.254 1.652 8.55C1.652 7.146 2.016 5.872 2.744 4.728C3.498 3.558 4.629 2.635 6.137 1.959C7.645 1.257 9.504 0.905998 11.714 0.905998C13.924 0.905998 15.783 1.257 17.291 1.959C18.799 2.635 19.917 3.558 20.645 4.728C21.399 5.872 21.776 7.146 21.776 8.55C21.776 9.928 21.464 11.124 20.84 12.138C20.242 13.126 19.397 13.919 18.305 14.517C19.657 15.219 20.684 16.155 21.386 17.325C22.088 18.495 22.439 19.873 22.439 21.459C22.439 23.357 21.958 24.995 20.996 26.373C20.034 27.725 18.734 28.752 17.096 29.454C15.484 30.156 13.69 30.507 11.714 30.507C9.738 30.507 7.931 30.156 6.293 29.454C4.681 28.752 3.394 27.725 2.432 26.373C1.47 24.995 0.989 23.357 0.989 21.459C0.989 19.873 1.34 18.495 2.042 17.325C2.744 16.155 3.771 15.219 5.123 14.517ZM14.288 9.759C14.288 8.849 14.054 8.147 13.586 7.653C13.118 7.133 12.494 6.873 11.714 6.873C10.96 6.873 10.336 7.133 9.842 7.653C9.374 8.173 9.14 8.875 9.14 9.759C9.14 10.643 9.374 11.332 9.842 11.826C10.336 12.32 10.96 12.567 11.714 12.567C12.468 12.567 13.079 12.32 13.547 11.826C14.041 11.332 14.288 10.643 14.288 9.759ZM11.714 17.793C10.726 17.793 9.92 18.092 9.296 18.69C8.698 19.262 8.399 20.042 8.399 21.03C8.399 21.966 8.698 22.733 9.296 23.331C9.894 23.929 10.7 24.228 11.714 24.228C12.728 24.228 13.521 23.929 14.093 23.331C14.691 22.733 14.99 21.966 14.99 21.03C14.99 20.042 14.691 19.262 14.093 18.69C13.495 18.092 12.702 17.793 11.714 17.793Z" fill="#D9D9D9"/>
</svg>
