<svg width="21" height="29" viewBox="0 0 21 29" fill="none" xmlns="http://www.w3.org/2000/svg">
<path d="M19.269 7.238H7.569V11.567C8.063 11.047 8.739 10.631 9.597 10.319C10.455 10.007 11.404 9.851 12.444 9.851C14.316 9.851 15.876 10.28 17.124 11.138C18.398 11.996 19.334 13.127 19.932 14.531C20.53 15.935 20.829 17.469 20.829 19.133C20.829 22.201 19.958 24.619 18.216 26.387C16.474 28.129 14.056 29 10.962 29C8.804 29 6.932 28.636 5.346 27.908C3.786 27.154 2.59 26.114 1.758 24.788C0.926 23.462 0.497 21.941 0.471 20.225H7.92C7.998 20.823 8.258 21.343 8.7 21.785C9.142 22.227 9.792 22.448 10.65 22.448C11.56 22.448 12.249 22.136 12.717 21.512C13.185 20.888 13.419 20.056 13.419 19.016C13.419 18.002 13.172 17.235 12.678 16.715C12.184 16.169 11.469 15.896 10.533 15.896C9.831 15.896 9.259 16.078 8.817 16.442C8.401 16.78 8.154 17.209 8.076 17.729H0.627V0.491H19.269V7.238Z" fill="#D9D9D9"/>
</svg>
