<svg width="416" height="183" viewBox="0 0 416 183" fill="none" xmlns="http://www.w3.org/2000/svg">
<mask id="path-1-outside-1_1_1220" maskUnits="userSpaceOnUse" x="-2" y="-2" width="423" height="187" fill="black">
<rect fill="white" x="-2" y="-2" width="423" height="187"/>
<path d="M89.996 2.79499V23.162H25.391V68.057H75.761V88.424H25.391V155H0.425001V2.79499H89.996ZM204.894 123.902H141.165L130.215 155H104.154L158.685 2.57599H187.593L242.124 155H215.844L204.894 123.902ZM197.886 103.535L173.139 32.798L148.173 103.535H197.886ZM383.656 182.594L356.938 153.686C350.368 155.584 343.141 156.533 335.257 156.533C321.095 156.533 308.028 153.248 296.056 146.678C284.23 139.962 274.813 130.691 267.805 118.865C260.943 106.893 257.512 93.461 257.512 78.569C257.512 63.677 260.943 50.318 267.805 38.492C274.813 26.666 284.23 17.468 296.056 10.898C308.028 4.18199 321.095 0.823988 335.257 0.823988C349.565 0.823988 362.632 4.18199 374.458 10.898C386.43 17.468 395.847 26.666 402.709 38.492C409.571 50.318 413.002 63.677 413.002 78.569C413.002 92.585 409.936 105.287 403.804 116.675C397.818 127.917 389.496 136.969 378.838 143.831L415.411 182.594H383.656ZM283.135 78.569C283.135 89.811 285.325 99.739 289.705 108.353C294.231 116.821 300.436 123.391 308.32 128.063C316.204 132.589 325.183 134.852 335.257 134.852C345.331 134.852 354.31 132.589 362.194 128.063C370.078 123.391 376.21 116.821 380.59 108.353C385.116 99.739 387.379 89.811 387.379 78.569C387.379 67.327 385.116 57.472 380.59 49.004C376.21 40.536 370.078 34.039 362.194 29.513C354.31 24.987 345.331 22.724 335.257 22.724C325.183 22.724 316.204 24.987 308.32 29.513C300.436 34.039 294.231 40.536 289.705 49.004C285.325 57.472 283.135 67.327 283.135 78.569Z"/>
</mask>
<path d="M89.996 2.79499H90.996V1.79499H89.996V2.79499ZM89.996 23.162V24.162H90.996V23.162H89.996ZM25.391 23.162V22.162H24.391V23.162H25.391ZM25.391 68.057H24.391V69.057H25.391V68.057ZM75.761 68.057H76.761V67.057H75.761V68.057ZM75.761 88.424V89.424H76.761V88.424H75.761ZM25.391 88.424V87.424H24.391V88.424H25.391ZM25.391 155V156H26.391V155H25.391ZM0.425001 155H-0.575V156H0.425001V155ZM0.425001 2.79499V1.79499H-0.575V2.79499H0.425001ZM89.996 1.79499H87.9603V3.79499H89.996V1.79499ZM83.8889 1.79499H79.8175V3.79499H83.8889V1.79499ZM75.7461 1.79499H71.6747V3.79499H75.7461V1.79499ZM67.6033 1.79499H63.5318V3.79499H67.6033V1.79499ZM59.4604 1.79499H55.389V3.79499H59.4604V1.79499ZM51.3176 1.79499H47.2462V3.79499H51.3176V1.79499ZM43.1748 1.79499H39.1034V3.79499H43.1748V1.79499ZM35.032 1.79499H30.9606V3.79499H35.032V1.79499ZM26.8892 1.79499H22.8177V3.79499H26.8892V1.79499ZM18.7463 1.79499H14.6749V3.79499H18.7463V1.79499ZM10.6035 1.79499H6.53209V3.79499H10.6035V1.79499ZM2.46068 1.79499H0.425001V3.79499H2.46068V1.79499ZM-0.575 2.79499V4.79768H1.425V2.79499H-0.575ZM-0.575 8.80308V12.8085H1.425V8.80308H-0.575ZM-0.575 16.8139V20.8193H1.425V16.8139H-0.575ZM-0.575 24.8247V28.8301H1.425V24.8247H-0.575ZM-0.575 32.8355V36.8409H1.425V32.8355H-0.575ZM-0.575 40.8462V44.8516H1.425V40.8462H-0.575ZM-0.575 48.857V52.8624H1.425V48.857H-0.575ZM-0.575 56.8678V60.8732H1.425V56.8678H-0.575ZM-0.575 64.8786V68.884H1.425V64.8786H-0.575ZM-0.575 72.8894V76.8948H1.425V72.8894H-0.575ZM-0.575 80.9002V84.9056H1.425V80.9002H-0.575ZM-0.575 88.911V92.9164H1.425V88.911H-0.575ZM-0.575 96.9218V100.927H1.425V96.9218H-0.575ZM-0.575 104.933V108.938H1.425V104.933H-0.575ZM-0.575 112.943V116.949H1.425V112.943H-0.575ZM-0.575 120.954V124.96H1.425V120.954H-0.575ZM-0.575 128.965V132.97H1.425V128.965H-0.575ZM-0.575 136.976V140.981H1.425V136.976H-0.575ZM-0.575 144.987V148.992H1.425V144.987H-0.575ZM-0.575 152.997V155H1.425V152.997H-0.575ZM0.425001 156H2.5055V154H0.425001V156ZM6.6665 156H10.8275V154H6.6665V156ZM14.9885 156H19.1495V154H14.9885V156ZM23.3105 156H25.391V154H23.3105V156ZM26.391 155V152.919H24.391V155H26.391ZM26.391 148.758V144.598H24.391V148.758H26.391ZM26.391 140.436V136.275H24.391V140.436H26.391ZM26.391 132.115V127.953H24.391V132.115H26.391ZM26.391 123.792V119.632H24.391V123.792H26.391ZM26.391 115.471V111.309H24.391V115.471H26.391ZM26.391 107.148V102.988H24.391V107.148H26.391ZM26.391 98.8265V94.6655H24.391V98.8265H26.391ZM26.391 90.5045V88.424H24.391V90.5045H26.391ZM25.391 89.424H27.4898V87.424H25.391V89.424ZM31.6873 89.424H35.8848V87.424H31.6873V89.424ZM40.0823 89.424H44.2798V87.424H40.0823V89.424ZM48.4773 89.424H52.6748V87.424H48.4773V89.424ZM56.8723 89.424H61.0698V87.424H56.8723V89.424ZM65.2673 89.424H69.4648V87.424H65.2673V89.424ZM73.6623 89.424H75.761V87.424H73.6623V89.424ZM76.761 88.424V86.7267H74.761V88.424H76.761ZM76.761 83.3322V79.9377H74.761V83.3322H76.761ZM76.761 76.5432V73.1487H74.761V76.5432H76.761ZM76.761 69.7542V68.057H74.761V69.7542H76.761ZM75.761 67.057H73.6623V69.057H75.761V67.057ZM69.4648 67.057H65.2673V69.057H69.4648V67.057ZM61.0698 67.057H56.8723V69.057H61.0698V67.057ZM52.6748 67.057H48.4773V69.057H52.6748V67.057ZM44.2798 67.057H40.0823V69.057H44.2798V67.057ZM35.8848 67.057H31.6873V69.057H35.8848V67.057ZM27.4897 67.057H25.391V69.057H27.4897V67.057ZM26.391 68.057V66.1864H24.391V68.057H26.391ZM26.391 62.4451V58.7039H24.391V62.4451H26.391ZM26.391 54.9626V51.2214H24.391V54.9626H26.391ZM26.391 47.4801V43.7389H24.391V47.4801H26.391ZM26.391 39.9976V36.2564H24.391V39.9976H26.391ZM26.391 32.5151V28.7739H24.391V32.5151H26.391ZM26.391 25.0326V23.162H24.391V25.0326H26.391ZM25.391 24.162H27.4099V22.162H25.391V24.162ZM31.4477 24.162H35.4855V22.162H31.4477V24.162ZM39.5233 24.162H43.5612V22.162H39.5233V24.162ZM47.599 24.162H51.6368V22.162H47.599V24.162ZM55.6746 24.162H59.7124V22.162H55.6746V24.162ZM63.7502 24.162H67.788V22.162H63.7502V24.162ZM71.8259 24.162H75.8637V22.162H71.8259V24.162ZM79.9015 24.162H83.9393V22.162H79.9015V24.162ZM87.9771 24.162H89.996V22.162H87.9771V24.162ZM90.996 23.162V21.4647H88.996V23.162H90.996ZM90.996 18.0702V14.6757H88.996V18.0702H90.996ZM90.996 11.2812V7.88674H88.996V11.2812H90.996ZM90.996 4.49223V2.79499H88.996V4.49223H90.996ZM89.996 2.79499H91.996V0.794991H89.996V2.79499ZM89.996 23.162V25.162H91.996V23.162H89.996ZM25.391 23.162V21.162H23.391V23.162H25.391ZM25.391 68.057H23.391V70.057H25.391V68.057ZM75.761 68.057H77.761V66.057H75.761V68.057ZM75.761 88.424V90.424H77.761V88.424H75.761ZM25.391 88.424V86.424H23.391V88.424H25.391ZM25.391 155V157H27.391V155H25.391ZM0.425001 155H-1.575V157H0.425001V155ZM0.425001 2.79499V0.794991H-1.575V2.79499H0.425001ZM89.996 0.794991H87.9603V4.79499H89.996V0.794991ZM83.8889 0.794991H79.8175V4.79499H83.8889V0.794991ZM75.7461 0.794991H71.6747V4.79499H75.7461V0.794991ZM67.6033 0.794991H63.5318V4.79499H67.6033V0.794991ZM59.4604 0.794991H55.389V4.79499H59.4604V0.794991ZM51.3176 0.794991H47.2462V4.79499H51.3176V0.794991ZM43.1748 0.794991H39.1034V4.79499H43.1748V0.794991ZM35.032 0.794991H30.9606V4.79499H35.032V0.794991ZM26.8892 0.794991H22.8177V4.79499H26.8892V0.794991ZM18.7463 0.794991H14.6749V4.79499H18.7463V0.794991ZM10.6035 0.794991H6.53209V4.79499H10.6035V0.794991ZM2.46068 0.794991H0.425001V4.79499H2.46068V0.794991ZM-1.575 2.79499V4.79768H2.425V2.79499H-1.575ZM-1.575 8.80308V12.8085H2.425V8.80308H-1.575ZM-1.575 16.8139V20.8193H2.425V16.8139H-1.575ZM-1.575 24.8247V28.8301H2.425V24.8247H-1.575ZM-1.575 32.8355V36.8409H2.425V32.8355H-1.575ZM-1.575 40.8462V44.8516H2.425V40.8462H-1.575ZM-1.575 48.857V52.8624H2.425V48.857H-1.575ZM-1.575 56.8678V60.8732H2.425V56.8678H-1.575ZM-1.575 64.8786V68.884H2.425V64.8786H-1.575ZM-1.575 72.8894V76.8948H2.425V72.8894H-1.575ZM-1.575 80.9002V84.9056H2.425V80.9002H-1.575ZM-1.575 88.911V92.9164H2.425V88.911H-1.575ZM-1.575 96.9218V100.927H2.425V96.9218H-1.575ZM-1.575 104.933V108.938H2.425V104.933H-1.575ZM-1.575 112.943V116.949H2.425V112.943H-1.575ZM-1.575 120.954V124.96H2.425V120.954H-1.575ZM-1.575 128.965V132.97H2.425V128.965H-1.575ZM-1.575 136.976V140.981H2.425V136.976H-1.575ZM-1.575 144.987V148.992H2.425V144.987H-1.575ZM-1.575 152.997V155H2.425V152.997H-1.575ZM0.425001 157H2.5055V153H0.425001V157ZM6.6665 157H10.8275V153H6.6665V157ZM14.9885 157H19.1495V153H14.9885V157ZM23.3105 157H25.391V153H23.3105V157ZM27.391 155V152.919H23.391V155H27.391ZM27.391 148.758V144.598H23.391V148.758H27.391ZM27.391 140.436V136.275H23.391V140.436H27.391ZM27.391 132.115V127.953H23.391V132.115H27.391ZM27.391 123.792V119.632H23.391V123.792H27.391ZM27.391 115.471V111.309H23.391V115.471H27.391ZM27.391 107.148V102.988H23.391V107.148H27.391ZM27.391 98.8265V94.6655H23.391V98.8265H27.391ZM27.391 90.5045V88.424H23.391V90.5045H27.391ZM25.391 90.424H27.4898V86.424H25.391V90.424ZM31.6873 90.424H35.8848V86.424H31.6873V90.424ZM40.0823 90.424H44.2798V86.424H40.0823V90.424ZM48.4773 90.424H52.6748V86.424H48.4773V90.424ZM56.8723 90.424H61.0698V86.424H56.8723V90.424ZM65.2673 90.424H69.4648V86.424H65.2673V90.424ZM73.6623 90.424H75.761V86.424H73.6623V90.424ZM77.761 88.424V86.7267H73.761V88.424H77.761ZM77.761 83.3322V79.9377H73.761V83.3322H77.761ZM77.761 76.5432V73.1487H73.761V76.5432H77.761ZM77.761 69.7542V68.057H73.761V69.7542H77.761ZM75.761 66.057H73.6623V70.057H75.761V66.057ZM69.4648 66.057H65.2673V70.057H69.4648V66.057ZM61.0698 66.057H56.8723V70.057H61.0698V66.057ZM52.6748 66.057H48.4773V70.057H52.6748V66.057ZM44.2798 66.057H40.0823V70.057H44.2798V66.057ZM35.8848 66.057H31.6873V70.057H35.8848V66.057ZM27.4897 66.057H25.391V70.057H27.4897V66.057ZM27.391 68.057V66.1864H23.391V68.057H27.391ZM27.391 62.4451V58.7039H23.391V62.4451H27.391ZM27.391 54.9626V51.2214H23.391V54.9626H27.391ZM27.391 47.4801V43.7389H23.391V47.4801H27.391ZM27.391 39.9976V36.2564H23.391V39.9976H27.391ZM27.391 32.5151V28.7739H23.391V32.5151H27.391ZM27.391 25.0326V23.162H23.391V25.0326H27.391ZM25.391 25.162H27.4099V21.162H25.391V25.162ZM31.4477 25.162H35.4855V21.162H31.4477V25.162ZM39.5233 25.162H43.5612V21.162H39.5233V25.162ZM47.599 25.162H51.6368V21.162H47.599V25.162ZM55.6746 25.162H59.7124V21.162H55.6746V25.162ZM63.7502 25.162H67.788V21.162H63.7502V25.162ZM71.8259 25.162H75.8637V21.162H71.8259V25.162ZM79.9015 25.162H83.9393V21.162H79.9015V25.162ZM87.9771 25.162H89.996V21.162H87.9771V25.162ZM91.996 23.162V21.4647H87.996V23.162H91.996ZM91.996 18.0702V14.6757H87.996V18.0702H91.996ZM91.996 11.2812V7.88674H87.996V11.2812H91.996ZM91.996 4.49223V2.79499H87.996V4.49223H91.996ZM204.894 123.902L205.837 123.57L205.602 122.902H204.894V123.902ZM141.165 123.902V122.902H140.457L140.222 123.57L141.165 123.902ZM130.215 155V156H130.923L131.158 155.332L130.215 155ZM104.154 155L103.212 154.663L102.734 156H104.154V155ZM158.685 2.57599V1.57599H157.981L157.743 2.23914L158.685 2.57599ZM187.593 2.57599L188.535 2.23914L188.297 1.57599H187.593V2.57599ZM242.124 155V156H243.544L243.066 154.663L242.124 155ZM215.844 155L214.901 155.332L215.136 156H215.844V155ZM197.886 103.535V104.535H199.295L198.83 103.205L197.886 103.535ZM173.139 32.798L174.083 32.4678L173.143 29.7816L172.196 32.4652L173.139 32.798ZM148.173 103.535L147.23 103.202L146.76 104.535H148.173V103.535ZM204.894 122.902H202.902V124.902H204.894V122.902ZM198.919 122.902H194.936V124.902H198.919V122.902ZM190.953 122.902H186.97V124.902H190.953V122.902ZM182.987 122.902H179.004V124.902H182.987V122.902ZM175.021 122.902H171.038V124.902H175.021V122.902ZM167.055 122.902H163.072V124.902H167.055V122.902ZM159.089 122.902H155.106V124.902H159.089V122.902ZM151.123 122.902H147.14V124.902H151.123V122.902ZM143.157 122.902H141.165V124.902H143.157V122.902ZM140.222 123.57L139.537 125.514L141.424 126.178L142.108 124.234L140.222 123.57ZM138.169 129.401L136.8 133.288L138.686 133.952L140.055 130.065L138.169 129.401ZM135.431 137.175L134.062 141.062L135.949 141.727L137.318 137.839L135.431 137.175ZM132.694 144.95L131.325 148.837L133.211 149.501L134.58 145.614L132.694 144.95ZM129.956 152.724L129.272 154.668L131.158 155.332L131.843 153.389L129.956 152.724ZM130.215 154H128.043V156H130.215V154ZM123.7 154H119.356V156H123.7V154ZM115.013 154H110.669V156H115.013V154ZM106.326 154H104.154V156H106.326V154ZM105.096 155.337L105.777 153.432L103.894 152.758L103.212 154.663L105.096 155.337ZM107.14 149.621L108.504 145.81L106.621 145.137L105.257 148.947L107.14 149.621ZM109.867 142L111.23 138.189L109.347 137.515L107.984 141.326L109.867 142ZM112.594 134.379L113.957 130.568L112.074 129.894L110.71 133.705L112.594 134.379ZM115.32 126.757L116.683 122.947L114.8 122.273L113.437 126.084L115.32 126.757ZM118.047 119.136L119.41 115.326L117.527 114.652L116.164 118.462L118.047 119.136ZM120.773 111.515L122.137 107.704L120.253 107.031L118.89 110.841L120.773 111.515ZM123.5 103.894L124.863 100.083L122.98 99.4094L121.617 103.22L123.5 103.894ZM126.226 96.2725L127.59 92.4619L125.706 91.7882L124.343 95.5988L126.226 96.2725ZM128.953 88.6513L130.316 84.8407L128.433 84.167L127.07 87.9776L128.953 88.6513ZM131.679 81.0302L133.043 77.2195L131.16 76.5459L129.796 80.3564L131.679 81.0302ZM134.406 73.409L135.769 69.5984L133.886 68.9247L132.523 72.7352L134.406 73.409ZM137.133 65.7878L138.496 61.9772L136.613 61.3035L135.249 65.114L137.133 65.7878ZM139.859 58.1665L141.222 54.356L139.339 53.6823L137.976 57.4929L139.859 58.1665ZM142.586 50.5454L143.949 46.7348L142.066 46.0611L140.703 49.8717L142.586 50.5454ZM145.312 42.9242L146.675 39.1136L144.792 38.4399L143.429 42.2505L145.312 42.9242ZM148.039 35.303L149.402 31.4924L147.519 30.8187L146.156 34.6293L148.039 35.303ZM150.765 27.6818L152.129 23.8712L150.245 23.1975L148.882 27.0081L150.765 27.6818ZM153.492 20.0606L154.855 16.25L152.972 15.5763L151.609 19.3869L153.492 20.0606ZM156.218 12.4394L157.582 8.62878L155.699 7.95508L154.335 11.7657L156.218 12.4394ZM158.945 4.81818L159.627 2.91284L157.743 2.23914L157.062 4.14449L158.945 4.81818ZM158.685 3.57599H160.492V1.57599H158.685V3.57599ZM164.105 3.57599H167.719V1.57599H164.105V3.57599ZM171.332 3.57599H174.946V1.57599H171.332V3.57599ZM178.559 3.57599H182.173V1.57599H178.559V3.57599ZM185.786 3.57599H187.593V1.57599H185.786V3.57599ZM186.651 2.91284L187.333 4.81815L189.216 4.14444L188.535 2.23914L186.651 2.91284ZM188.696 8.62875L190.06 12.4393L191.943 11.7656L190.579 7.95504L188.696 8.62875ZM191.423 16.2499L192.786 20.0605L194.669 19.3868L193.306 15.5762L191.423 16.2499ZM194.149 23.8711L195.513 27.6817L197.396 27.008L196.033 23.1974L194.149 23.8711ZM196.876 31.4923L198.239 35.3029L200.122 34.6292L198.759 30.8186L196.876 31.4923ZM199.603 39.1135L200.966 42.9241L202.849 42.2504L201.486 38.4398L199.603 39.1135ZM202.329 46.7347L203.692 50.5453L205.576 49.8716L204.212 46.0611L202.329 46.7347ZM205.056 54.356L206.419 58.1665L208.302 57.4928L206.939 53.6823L205.056 54.356ZM207.782 61.9772L209.145 65.7878L211.029 65.1141L209.665 61.3035L207.782 61.9772ZM210.509 69.5983L211.872 73.409L213.755 72.7352L212.392 68.9247L210.509 69.5983ZM213.235 77.2195L214.599 81.0302L216.482 80.3564L215.118 76.5459L213.235 77.2195ZM215.962 84.8407L217.325 88.6513L219.208 87.9776L217.845 84.167L215.962 84.8407ZM218.688 92.4619L220.052 96.2725L221.935 95.5988L220.572 91.7882L218.688 92.4619ZM221.415 100.083L222.778 103.894L224.661 103.22L223.298 99.4094L221.415 100.083ZM224.142 107.704L225.505 111.515L227.388 110.841L226.025 107.031L224.142 107.704ZM226.868 115.326L228.231 119.136L230.114 118.462L228.751 114.652L226.868 115.326ZM229.595 122.947L230.958 126.757L232.841 126.084L231.478 122.273L229.595 122.947ZM232.321 130.568L233.684 134.379L235.568 133.705L234.204 129.894L232.321 130.568ZM235.048 138.189L236.411 142L238.294 141.326L236.931 137.515L235.048 138.189ZM237.774 145.81L239.138 149.621L241.021 148.947L239.657 145.137L237.774 145.81ZM240.501 153.432L241.182 155.337L243.066 154.663L242.384 152.758L240.501 153.432ZM242.124 154H239.934V156H242.124V154ZM235.554 154H231.174V156H235.554V154ZM226.794 154H222.414V156H226.794V154ZM218.034 154H215.844V156H218.034V154ZM216.787 154.668L216.103 152.724L214.216 153.389L214.901 155.332L216.787 154.668ZM214.734 148.837L213.365 144.95L211.479 145.614L212.848 149.501L214.734 148.837ZM211.997 141.062L210.628 137.175L208.741 137.839L210.11 141.727L211.997 141.062ZM209.259 133.288L207.89 129.401L206.004 130.065L207.373 133.952L209.259 133.288ZM206.522 125.514L205.837 123.57L203.951 124.234L204.635 126.178L206.522 125.514ZM197.886 102.535H195.815V104.535H197.886V102.535ZM191.672 102.535H187.529V104.535H191.672V102.535ZM183.386 102.535H179.244V104.535H183.386V102.535ZM175.101 102.535H170.958V104.535H175.101V102.535ZM166.815 102.535H162.673V104.535H166.815V102.535ZM158.53 102.535H154.387V104.535H158.53V102.535ZM150.244 102.535H148.173V104.535H150.244V102.535ZM149.116 103.868L149.809 101.903L147.924 101.237L147.23 103.202L149.116 103.868ZM151.197 97.9731L152.583 94.0432L150.698 93.3776L149.311 97.3074L151.197 97.9731ZM153.971 90.1134L155.357 86.1836L153.472 85.5179L152.085 89.4478L153.971 90.1134ZM156.745 82.2537L158.132 78.3239L156.246 77.6583L154.859 81.5881L156.745 82.2537ZM159.518 74.3941L160.906 70.4642L159.02 69.7986L157.633 73.7284L159.518 74.3941ZM162.292 66.5344L163.68 62.6046L161.794 61.9389L160.407 65.8688L162.292 66.5344ZM165.066 58.6747L166.453 54.7449L164.568 54.0793L163.181 58.0091L165.066 58.6747ZM167.84 50.8151L169.227 46.8852L167.342 46.2196L165.955 50.1494L167.84 50.8151ZM170.615 42.9554L172.001 39.0256L170.116 38.3599L168.729 42.2898L170.615 42.9554ZM173.389 35.0957L174.082 33.1308L172.196 32.4652L171.503 34.4301L173.389 35.0957ZM172.195 33.1282L172.883 35.0931L174.77 34.4327L174.083 32.4678L172.195 33.1282ZM174.257 39.023L175.632 42.9528L177.52 42.2924L176.145 38.3625L174.257 39.023ZM177.007 46.8826L178.382 50.8125L180.27 50.152L178.895 46.2222L177.007 46.8826ZM179.757 54.7423L181.132 58.6721L183.019 58.0117L181.645 54.0819L179.757 54.7423ZM182.506 62.602L183.881 66.5318L185.769 65.8714L184.394 61.9415L182.506 62.602ZM185.256 70.4616L186.631 74.3915L188.519 73.731L187.144 69.8012L185.256 70.4616ZM188.006 78.3213L189.381 82.2511L191.268 81.5907L189.893 77.6609L188.006 78.3213ZM190.755 86.181L192.13 90.1108L194.018 89.4504L192.643 85.5205L190.755 86.181ZM193.505 94.0406L194.88 97.9705L196.768 97.31L195.393 93.3802L193.505 94.0406ZM196.255 101.9L196.942 103.865L198.83 103.205L198.143 101.24L196.255 101.9ZM204.894 123.902L206.78 123.238L206.31 121.902H204.894V123.902ZM141.165 123.902V121.902H139.749L139.279 123.238L141.165 123.902ZM130.215 155V157H131.631L132.101 155.664L130.215 155ZM104.154 155L102.271 154.326L101.314 157H104.154V155ZM158.685 2.57599V0.575989H157.276L156.802 1.90229L158.685 2.57599ZM187.593 2.57599L189.476 1.90229L189.002 0.575989H187.593V2.57599ZM242.124 155V157H244.964L244.007 154.326L242.124 155ZM215.844 155L213.958 155.664L214.428 157H215.844V155ZM197.886 103.535V105.535H200.705L199.774 102.875L197.886 103.535ZM173.139 32.798L175.027 32.1376L173.147 26.7652L171.253 32.1324L173.139 32.798ZM148.173 103.535L146.287 102.869L145.346 105.535H148.173V103.535ZM204.894 121.902H202.902V125.902H204.894V121.902ZM198.919 121.902H194.936V125.902H198.919V121.902ZM190.953 121.902H186.97V125.902H190.953V121.902ZM182.987 121.902H179.004V125.902H182.987V121.902ZM175.021 121.902H171.038V125.902H175.021V121.902ZM167.055 121.902H163.072V125.902H167.055V121.902ZM159.089 121.902H155.106V125.902H159.089V121.902ZM151.123 121.902H147.14V125.902H151.123V121.902ZM143.157 121.902H141.165V125.902H143.157V121.902ZM139.279 123.238L138.594 125.181L142.367 126.51L143.051 124.566L139.279 123.238ZM137.225 129.069L135.857 132.956L139.63 134.284L140.998 130.397L137.225 129.069ZM134.488 136.843L133.119 140.73L136.892 142.059L138.261 138.172L134.488 136.843ZM131.75 144.618L130.382 148.505L134.155 149.833L135.523 145.946L131.75 144.618ZM129.013 152.392L128.329 154.336L132.101 155.664L132.786 153.721L129.013 152.392ZM130.215 153H128.043V157H130.215V153ZM123.7 153H119.356V157H123.7V153ZM115.013 153H110.669V157H115.013V153ZM106.326 153H104.154V157H106.326V153ZM106.037 155.674L106.719 153.768L102.953 152.421L102.271 154.326L106.037 155.674ZM108.082 149.958L109.445 146.147L105.679 144.8L104.316 148.61L108.082 149.958ZM110.809 142.337L112.172 138.526L108.406 137.179L107.042 140.989L110.809 142.337ZM113.535 134.715L114.898 130.905L111.132 129.557L109.769 133.368L113.535 134.715ZM116.262 127.094L117.625 123.284L113.859 121.936L112.495 125.747L116.262 127.094ZM118.988 119.473L120.352 115.662L116.585 114.315L115.222 118.126L118.988 119.473ZM121.715 111.852L123.078 108.041L119.312 106.694L117.949 110.504L121.715 111.852ZM124.441 104.231L125.805 100.42L122.038 99.0726L120.675 102.883L124.441 104.231ZM127.168 96.6094L128.531 92.7988L124.765 91.4514L123.402 95.262L127.168 96.6094ZM129.894 88.9882L131.258 85.1776L127.491 83.8302L126.128 87.6408L129.894 88.9882ZM132.621 81.367L133.984 77.5564L130.218 76.209L128.855 80.0196L132.621 81.367ZM135.348 73.7458L136.711 69.9352L132.945 68.5878L131.581 72.3984L135.348 73.7458ZM138.074 66.1246L139.437 62.314L135.671 60.9666L134.308 64.7772L138.074 66.1246ZM140.801 58.5034L142.164 54.6928L138.398 53.3454L137.034 57.156L140.801 58.5034ZM143.527 50.8822L144.89 47.0716L141.124 45.7242L139.761 49.5348L143.527 50.8822ZM146.254 43.261L147.617 39.4504L143.851 38.103L142.488 41.9136L146.254 43.261ZM148.98 35.6398L150.344 31.8292L146.577 30.4818L145.214 34.2924L148.98 35.6398ZM151.707 28.0186L153.07 24.208L149.304 22.8606L147.941 26.6712L151.707 28.0186ZM154.433 20.3974L155.797 16.5868L152.03 15.2394L150.667 19.05L154.433 20.3974ZM157.16 12.7762L158.523 8.96563L154.757 7.61823L153.394 11.4288L157.16 12.7762ZM159.886 5.15504L160.568 3.24969L156.802 1.90229L156.12 3.80763L159.886 5.15504ZM158.685 4.57599H160.492V0.575989H158.685V4.57599ZM164.105 4.57599H167.719V0.575989H164.105V4.57599ZM171.332 4.57599H174.946V0.575989H171.332V4.57599ZM178.559 4.57599H182.173V0.575989H178.559V4.57599ZM185.786 4.57599H187.593V0.575989H185.786V4.57599ZM185.71 3.24969L186.392 5.15499L190.158 3.80759L189.476 1.90229L185.71 3.24969ZM187.755 8.96559L189.118 12.7762L192.884 11.4288L191.521 7.61819L187.755 8.96559ZM190.481 16.5868L191.845 20.3974L195.611 19.05L194.248 15.2394L190.481 16.5868ZM193.208 24.208L194.571 28.0186L198.337 26.6712L196.974 22.8606L193.208 24.208ZM195.934 31.8292L197.298 35.6398L201.064 34.2924L199.701 30.4818L195.934 31.8292ZM198.661 39.4504L200.024 43.261L203.791 41.9136L202.427 38.103L198.661 39.4504ZM201.388 47.0716L202.751 50.8822L206.517 49.5348L205.154 45.7242L201.388 47.0716ZM204.114 54.6928L205.477 58.5034L209.244 57.156L207.88 53.3454L204.114 54.6928ZM206.841 62.314L208.204 66.1246L211.97 64.7772L210.607 60.9666L206.841 62.314ZM209.567 69.9352L210.93 73.7458L214.697 72.3984L213.333 68.5878L209.567 69.9352ZM212.294 77.5564L213.657 81.367L217.423 80.0196L216.06 76.209L212.294 77.5564ZM215.02 85.1776L216.384 88.9882L220.15 87.6408L218.787 83.8302L215.02 85.1776ZM217.747 92.7988L219.11 96.6094L222.876 95.262L221.513 91.4514L217.747 92.7988ZM220.473 100.42L221.837 104.231L225.603 102.883L224.24 99.0726L220.473 100.42ZM223.2 108.041L224.563 111.852L228.329 110.504L226.966 106.694L223.2 108.041ZM225.926 115.662L227.29 119.473L231.056 118.126L229.693 114.315L225.926 115.662ZM228.653 123.284L230.016 127.094L233.783 125.747L232.419 121.936L228.653 123.284ZM231.38 130.905L232.743 134.715L236.509 133.368L235.146 129.557L231.38 130.905ZM234.106 138.526L235.469 142.337L239.236 140.989L237.872 137.179L234.106 138.526ZM236.833 146.147L238.196 149.958L241.962 148.61L240.599 144.8L236.833 146.147ZM239.559 153.768L240.241 155.674L244.007 154.326L243.325 152.421L239.559 153.768ZM242.124 153H239.934V157H242.124V153ZM235.554 153H231.174V157H235.554V153ZM226.794 153H222.414V157H226.794V153ZM218.034 153H215.844V157H218.034V153ZM217.73 154.336L217.046 152.392L213.273 153.721L213.958 155.664L217.73 154.336ZM215.677 148.505L214.309 144.618L210.536 145.946L211.904 149.833L215.677 148.505ZM212.94 140.73L211.571 136.843L207.798 138.172L209.167 142.059L212.94 140.73ZM210.202 132.956L208.834 129.069L205.061 130.397L206.429 134.284L210.202 132.956ZM207.465 125.181L206.78 123.238L203.008 124.566L203.692 126.51L207.465 125.181ZM197.886 101.535H195.815V105.535H197.886V101.535ZM191.672 101.535H187.529V105.535H191.672V101.535ZM183.386 101.535H179.244V105.535H183.386V101.535ZM175.101 101.535H170.958V105.535H175.101V101.535ZM166.815 101.535H162.673V105.535H166.815V101.535ZM158.53 101.535H154.387V105.535H158.53V101.535ZM150.244 101.535H148.173V105.535H150.244V101.535ZM150.059 104.201L150.752 102.236L146.981 100.904L146.287 102.869L150.059 104.201ZM152.139 98.3059L153.526 94.3761L149.755 93.0448L148.368 96.9746L152.139 98.3059ZM154.913 90.4462L156.3 86.5164L152.529 85.1851L151.142 89.1149L154.913 90.4462ZM157.687 82.5865L159.074 78.6567L155.303 77.3254L153.916 81.2553L157.687 82.5865ZM160.461 74.7269L161.848 70.7971L158.077 69.4658L156.69 73.3956L160.461 74.7269ZM163.235 66.8672L164.622 62.9374L160.851 61.6061L159.464 65.5359L163.235 66.8672ZM166.009 59.0076L167.396 55.0777L163.625 53.7464L162.238 57.6763L166.009 59.0076ZM168.783 51.1479L170.17 47.2181L166.399 45.8868L165.012 49.8166L168.783 51.1479ZM171.557 43.2882L172.944 39.3584L169.173 38.0271L167.786 41.9569L171.557 43.2882ZM174.331 35.4286L175.025 33.4636L171.253 32.1324L170.56 34.0973L174.331 35.4286ZM171.251 33.4584L171.939 35.4233L175.714 34.1025L175.027 32.1376L171.251 33.4584ZM173.313 39.3532L174.688 43.283L178.464 41.9621L177.089 38.0323L173.313 39.3532ZM176.063 47.2128L177.438 51.1427L181.214 49.8218L179.839 45.892L176.063 47.2128ZM178.813 55.0725L180.188 59.0023L183.963 57.6815L182.588 53.7516L178.813 55.0725ZM181.562 62.9322L182.937 66.862L186.713 65.5411L185.338 61.6113L181.562 62.9322ZM184.312 70.7919L185.687 74.7217L189.463 73.4008L188.088 69.471L184.312 70.7919ZM187.062 78.6515L188.437 82.5814L192.212 81.2605L190.837 77.3306L187.062 78.6515ZM189.811 86.5112L191.186 90.441L194.962 89.1201L193.587 85.1903L189.811 86.5112ZM192.561 94.3709L193.936 98.3007L197.712 96.9798L196.337 93.05L192.561 94.3709ZM195.311 102.231L195.998 104.195L199.774 102.875L199.086 100.91L195.311 102.231ZM383.656 182.594L382.922 183.273L383.219 183.594H383.656V182.594ZM356.938 153.686L357.673 153.007L357.254 152.554L356.661 152.725L356.938 153.686ZM296.056 146.678L295.562 147.548L295.569 147.551L295.575 147.555L296.056 146.678ZM267.805 118.865L266.938 119.362L266.941 119.369L266.945 119.375L267.805 118.865ZM267.805 38.492L266.945 37.9822L266.94 37.9901L267.805 38.492ZM296.056 10.898L296.542 11.7722L296.545 11.7701L296.056 10.898ZM374.458 10.898L373.964 11.7675L373.971 11.7711L373.977 11.7747L374.458 10.898ZM402.709 38.492L401.844 38.9939L402.709 38.492ZM403.804 116.675L402.924 116.201L402.922 116.205L403.804 116.675ZM378.838 143.831L378.297 142.99L377.285 143.642L378.111 144.517L378.838 143.831ZM415.411 182.594V183.594H417.73L416.139 181.908L415.411 182.594ZM289.705 108.353L288.814 108.806L288.818 108.815L288.823 108.824L289.705 108.353ZM308.32 128.063L307.81 128.923L307.822 128.93L308.32 128.063ZM362.194 128.063L362.692 128.93L362.704 128.923L362.194 128.063ZM380.59 108.353L379.705 107.888L379.702 107.894L380.59 108.353ZM380.59 49.004L379.702 49.4635L379.708 49.4754L380.59 49.004ZM362.194 29.513L361.696 30.3802L362.194 29.513ZM308.32 29.513L308.818 30.3802L308.32 29.513ZM289.705 49.004L288.823 48.5326L288.817 48.5446L289.705 49.004ZM384.391 181.915L383.055 180.47L381.586 181.827L382.922 183.273L384.391 181.915ZM380.383 177.579L377.711 174.688L376.242 176.046L378.914 178.937L380.383 177.579ZM375.039 171.797L372.367 168.907L370.899 170.264L373.57 173.155L375.039 171.797ZM369.696 166.016L367.024 163.125L365.555 164.483L368.227 167.373L369.696 166.016ZM364.352 160.234L361.68 157.343L360.212 158.701L362.883 161.592L364.352 160.234ZM359.008 154.453L357.673 153.007L356.204 154.365L357.54 155.81L359.008 154.453ZM356.661 152.725C356.087 152.891 355.508 153.049 354.924 153.2L355.425 155.137C356.027 154.981 356.624 154.818 357.216 154.647L356.661 152.725ZM351.414 154.008C350.249 154.243 349.065 154.451 347.862 154.632L348.16 156.61C349.395 156.424 350.612 156.21 351.81 155.968L351.414 154.008ZM344.281 155.085C343.099 155.206 341.898 155.303 340.68 155.376L340.798 157.372C342.045 157.298 343.274 157.199 344.486 157.074L344.281 155.085ZM337.067 155.516C336.468 155.527 335.864 155.533 335.257 155.533V157.533C335.877 157.533 336.493 157.527 337.105 157.516L337.067 155.516ZM335.257 155.533C334.581 155.533 333.907 155.525 333.236 155.51L333.191 157.51C333.877 157.525 334.566 157.533 335.257 157.533V155.533ZM329.202 155.326C327.851 155.232 326.511 155.107 325.182 154.951L324.948 156.937C326.309 157.097 327.681 157.225 329.064 157.321L329.202 155.326ZM321.187 154.379C319.856 154.155 318.536 153.897 317.227 153.607L316.794 155.56C318.137 155.857 319.49 156.121 320.855 156.351L321.187 154.379ZM313.313 152.633C312.016 152.275 310.73 151.883 309.455 151.457L308.822 153.354C310.13 153.791 311.449 154.193 312.78 154.561L313.313 152.633ZM305.664 150.081C304.414 149.591 303.176 149.067 301.949 148.51L301.122 150.332C302.381 150.903 303.651 151.44 304.933 151.943L305.664 150.081ZM298.319 146.75C297.722 146.442 297.128 146.126 296.537 145.801L295.575 147.555C296.181 147.887 296.789 148.211 297.401 148.527L298.319 146.75ZM296.55 145.808C295.974 145.481 295.404 145.148 294.84 144.809L293.809 146.523C294.388 146.871 294.972 147.212 295.562 147.548L296.55 145.808ZM291.5 142.684C290.401 141.944 289.326 141.179 288.275 140.389L287.073 141.988C288.152 142.799 289.255 143.584 290.383 144.343L291.5 142.684ZM285.176 137.929C284.164 137.08 283.177 136.206 282.214 135.306L280.848 136.768C281.837 137.692 282.852 138.59 283.891 139.461L285.176 137.929ZM279.396 132.529C278.484 131.579 277.596 130.605 276.731 129.604L275.218 130.911C276.105 131.938 277.017 132.94 277.954 133.915L279.396 132.529ZM274.224 126.541C273.419 125.504 272.637 124.441 271.879 123.352L270.238 124.496C271.016 125.612 271.818 126.702 272.644 127.767L274.224 126.541ZM269.696 120.048C269.347 119.49 269.003 118.925 268.665 118.355L266.945 119.375C267.291 119.959 267.643 120.537 268.001 121.109L269.696 120.048ZM268.673 118.368C268.328 117.766 267.992 117.161 267.665 116.552L265.903 117.499C266.239 118.124 266.584 118.745 266.938 119.362L268.673 118.368ZM265.802 112.842C265.215 111.588 264.663 110.319 264.147 109.035L262.292 109.781C262.821 111.099 263.388 112.402 263.99 113.69L265.802 112.842ZM262.707 105.141C262.264 103.834 261.857 102.511 261.484 101.174L259.557 101.71C259.94 103.083 260.358 104.441 260.813 105.783L262.707 105.141ZM260.477 97.1439C260.179 95.7992 259.915 94.4397 259.685 93.0655L257.712 93.396C257.948 94.8041 258.219 96.1977 258.525 97.5767L260.477 97.1439ZM259.101 88.95C258.942 87.5836 258.816 86.2032 258.721 84.8087L256.726 84.9441C256.822 86.3701 256.952 87.7825 257.115 89.1812L259.101 88.95ZM258.535 80.6516C258.52 79.9607 258.512 79.2665 258.512 78.569H256.512C256.512 79.2811 256.52 79.9899 256.535 80.6956L258.535 80.6516ZM258.512 78.569C258.512 77.8747 258.52 77.1839 258.535 76.4965L256.535 76.4527C256.52 77.1548 256.512 77.8602 256.512 78.569H258.512ZM258.719 72.3597C258.813 70.9713 258.939 69.5977 259.097 68.2387L257.11 68.0078C256.949 69.3992 256.82 70.8048 256.724 72.2247L258.719 72.3597ZM259.677 64.1436C259.906 62.7756 260.169 61.423 260.466 60.0858L258.514 59.6524C258.209 61.024 257.939 62.4109 257.704 63.813L259.677 64.1436ZM261.47 56.0771C261.843 54.7458 262.25 53.4305 262.692 52.131L260.799 51.4864C260.345 52.8211 259.926 54.1718 259.544 55.5385L261.47 56.0771ZM264.133 48.2604C264.65 46.9836 265.202 45.7227 265.79 44.4777L263.981 43.6236C263.377 44.9028 262.81 46.1983 262.279 47.5102L264.133 48.2604ZM267.659 40.7949C267.987 40.1906 268.324 39.5903 268.67 38.9939L266.94 37.9901C266.585 38.6026 266.238 39.2193 265.901 39.84L267.659 40.7949ZM268.665 39.0018C269.002 38.4334 269.345 37.8712 269.693 37.3153L267.997 36.2541C267.641 36.8239 267.29 37.4 266.945 37.9822L268.665 39.0018ZM271.869 34.0236C272.626 32.9394 273.406 31.8811 274.209 30.8485L272.631 29.6204C271.806 30.6805 271.005 31.7666 270.229 32.8789L271.869 34.0236ZM276.712 27.8018C277.576 26.8063 278.463 25.8372 279.375 24.8946L277.937 23.5043C277 24.473 276.088 25.4687 275.201 26.4914L276.712 27.8018ZM282.191 22.1374C283.155 21.2446 284.142 20.3784 285.155 19.5387L283.878 17.9994C282.837 18.8624 281.822 19.7528 280.832 20.6704L282.191 22.1374ZM288.256 17.1053C289.308 16.325 290.384 15.5707 291.484 14.8424L290.38 13.1746C289.251 13.9224 288.145 14.6972 287.064 15.4989L288.256 17.1053ZM294.829 12.7523C295.394 12.4193 295.965 12.0926 296.542 11.7721L295.571 10.0238C294.979 10.3525 294.393 10.6876 293.814 11.0293L294.829 12.7523ZM296.545 11.7701C297.135 11.4396 297.726 11.1173 298.321 10.8033L297.387 9.0349C296.777 9.3568 296.171 9.68712 295.567 10.0258L296.545 11.7701ZM301.941 9.00826C303.166 8.43976 304.402 7.90507 305.649 7.40414L304.903 5.54832C303.624 6.06234 302.356 6.61093 301.099 7.19407L301.941 9.00826ZM309.436 5.99799C310.71 5.56295 311.996 5.16193 313.292 4.79491L312.747 2.87054C311.417 3.24719 310.098 3.65877 308.79 4.10526L309.436 5.99799ZM317.207 3.79772C318.517 3.50061 319.837 3.23702 321.169 3.00697L320.829 1.03615C319.463 1.27207 318.108 1.54244 316.764 1.84727L317.207 3.79772ZM325.168 2.42111C326.499 2.26047 327.84 2.13221 329.193 2.03638L329.051 0.0413818C327.667 0.139519 326.292 0.270889 324.928 0.435532L325.168 2.42111ZM333.233 1.84728C333.905 1.83176 334.58 1.82399 335.257 1.82399V-0.17601C334.565 -0.17601 333.875 -0.168068 333.187 -0.152184L333.233 1.84728ZM335.257 1.82399C335.935 1.82399 336.61 1.83161 337.282 1.84685L337.328 -0.152641C336.64 -0.168221 335.95 -0.17601 335.257 -0.17601V1.82399ZM341.324 2.03275C342.679 2.12717 344.021 2.25359 345.351 2.412L345.588 0.426033C344.225 0.263718 342.85 0.134247 341.464 0.0375977L341.324 2.03275ZM349.352 2.99117C350.686 3.21916 352.008 3.48055 353.317 3.77529L353.756 1.82414C352.413 1.52169 351.057 1.25356 349.689 1.01974L349.352 2.99117ZM357.233 4.76727C358.531 5.1333 359.817 5.53347 361.09 5.96778L361.736 4.07492C360.429 3.62895 359.109 3.21808 357.776 2.8423L357.233 4.76727ZM364.876 7.37524C366.123 7.87785 367.358 8.41463 368.581 8.98561L369.427 7.17355C368.172 6.5874 366.904 6.03627 365.623 5.52016L364.876 7.37524ZM372.194 10.7926C372.787 11.1092 373.377 11.4342 373.964 11.7675L374.952 10.0284C374.35 9.68643 373.744 9.353 373.136 9.02816L372.194 10.7926ZM373.977 11.7747C374.556 12.0925 375.129 12.4165 375.696 12.7467L376.703 11.0185C376.121 10.6797 375.533 10.3473 374.939 10.0213L373.977 11.7747ZM379.053 14.8212C380.159 15.5454 381.239 16.2952 382.294 17.0708L383.478 15.4595C382.394 14.6623 381.285 13.8919 380.149 13.1482L379.053 14.8212ZM385.405 19.4938C386.421 20.3314 387.412 21.1955 388.376 22.086L389.733 20.6166C388.741 19.7006 387.722 18.8119 386.677 17.9506L385.405 19.4938ZM391.196 24.8411C392.109 25.7844 392.996 26.7543 393.857 27.7507L395.37 26.4428C394.485 25.4182 393.572 24.4207 392.634 23.4504L391.196 24.8411ZM396.353 30.8046C397.153 31.8408 397.928 32.903 398.678 33.9912L400.325 32.8561C399.554 31.7385 398.758 30.6472 397.936 29.5823L396.353 30.8046ZM400.832 37.2984C401.175 37.8573 401.513 38.4224 401.844 38.9939L403.574 37.9901C403.234 37.4041 402.888 36.8244 402.535 36.2509L400.832 37.2984ZM401.844 38.9939C402.19 39.5903 402.528 40.1906 402.856 40.7949L404.613 39.84C404.276 39.2193 403.93 38.6026 403.574 37.9901L401.844 38.9939ZM404.724 44.4777C405.312 45.7227 405.865 46.9836 406.382 48.2604L408.235 47.5102C407.705 46.1983 407.137 44.9028 406.533 43.6236L404.724 44.4777ZM407.822 52.131C408.264 53.4305 408.672 54.7458 409.044 56.0771L410.97 55.5385C410.588 54.1718 410.17 52.8211 409.715 51.4864L407.822 52.131ZM410.048 60.0858C410.345 61.423 410.608 62.7756 410.837 64.1436L412.81 63.813C412.575 62.4109 412.305 61.024 412.001 59.6524L410.048 60.0858ZM411.417 68.2387C411.575 69.5977 411.701 70.9713 411.795 72.3597L413.791 72.2247C413.695 70.8048 413.566 69.3992 413.404 68.0078L411.417 68.2387ZM411.98 76.4965C411.995 77.1839 412.002 77.8747 412.002 78.569H414.002C414.002 77.8602 413.995 77.1548 413.979 76.4527L411.98 76.4965ZM412.002 78.569C412.002 79.2255 411.995 79.879 411.982 80.5294L413.981 80.5712C413.995 79.9067 414.002 79.2393 414.002 78.569H412.002ZM411.816 84.4432C411.731 85.7559 411.618 87.056 411.476 88.3435L413.464 88.5625C413.609 87.2445 413.725 85.9142 413.812 84.5716L411.816 84.4432ZM410.956 92.2218C410.751 93.5173 410.515 94.7996 410.25 96.0687L412.207 96.4785C412.48 95.177 412.721 93.8624 412.932 92.5348L410.956 92.2218ZM409.352 99.8744C409.02 101.139 408.656 102.39 408.261 103.628L410.166 104.236C410.572 102.965 410.945 101.681 411.286 100.383L409.352 99.8744ZM406.975 107.318C406.514 108.537 406.021 109.743 405.496 110.935L407.327 111.741C407.866 110.516 408.372 109.278 408.846 108.026L406.975 107.318ZM403.828 114.468C403.534 115.049 403.233 115.627 402.924 116.201L404.685 117.149C405.002 116.559 405.312 115.966 405.613 115.37L403.828 114.468ZM402.922 116.205C402.632 116.749 402.337 117.287 402.037 117.82L403.779 118.802C404.087 118.255 404.39 117.703 404.687 117.145L402.922 116.205ZM400.152 120.981C399.495 122.024 398.815 123.045 398.113 124.044L399.749 125.194C400.471 124.167 401.169 123.118 401.844 122.048L400.152 120.981ZM395.921 126.997C395.163 127.964 394.383 128.909 393.578 129.832L395.086 131.146C395.913 130.196 396.716 129.225 397.495 128.23L395.921 126.997ZM391.091 132.539C390.239 133.419 389.363 134.277 388.464 135.113L389.826 136.578C390.75 135.718 391.651 134.836 392.527 133.931L391.091 132.539ZM385.706 137.546C384.769 138.33 383.809 139.092 382.826 139.834L384.03 141.431C385.04 140.669 386.026 139.885 386.99 139.079L385.706 137.546ZM379.833 141.975C379.326 142.318 378.814 142.657 378.297 142.99L379.38 144.672C379.911 144.33 380.436 143.982 380.956 143.63L379.833 141.975ZM378.111 144.517L379.417 145.902L380.872 144.529L379.566 143.145L378.111 144.517ZM382.029 148.67L384.642 151.439L386.096 150.067L383.484 147.298L382.029 148.67ZM387.254 154.208L389.866 156.977L391.321 155.604L388.709 152.835L387.254 154.208ZM392.479 159.746L395.091 162.514L396.546 161.142L393.934 158.373L392.479 159.746ZM397.704 165.283L400.316 168.052L401.771 166.679L399.158 163.911L397.704 165.283ZM402.928 170.821L405.541 173.59L406.995 172.217L404.383 169.448L402.928 170.821ZM408.153 176.358L410.765 179.127L412.22 177.755L409.608 174.986L408.153 176.358ZM413.378 181.896L414.684 183.28L416.139 181.908L414.832 180.523L413.378 181.896ZM415.411 181.594H413.426V183.594H415.411V181.594ZM409.457 181.594H405.488V183.594H409.457V181.594ZM401.518 181.594H397.549V183.594H401.518V181.594ZM393.58 181.594H389.61V183.594H393.58V181.594ZM385.641 181.594H383.656V183.594H385.641V181.594ZM284.135 78.569C284.135 77.9347 284.142 77.305 284.156 76.6799L282.157 76.6348C282.142 77.2751 282.135 77.9199 282.135 78.569H284.135ZM284.331 72.9096C284.421 71.6385 284.541 70.3877 284.693 69.1571L282.708 68.9126C282.552 70.1785 282.428 71.4638 282.336 72.7686L284.331 72.9096ZM285.257 65.434C285.482 64.185 285.742 62.9584 286.035 61.754L284.092 61.2805C283.789 62.5248 283.521 63.7908 283.289 65.0784L285.257 65.434ZM287.041 58.1333C287.418 56.9285 287.831 55.7476 288.281 54.5903L286.417 53.8654C285.95 55.0654 285.522 56.289 285.132 57.5362L287.041 58.1333ZM289.762 51.1441C290.03 50.5778 290.307 50.0175 290.593 49.4634L288.817 48.5446C288.519 49.1201 288.232 49.7018 287.954 50.2898L289.762 51.1441ZM290.587 49.4754C290.941 48.8126 291.306 48.1624 291.681 47.5248L289.957 46.5112C289.568 47.1725 289.19 47.8463 288.823 48.5326L290.587 49.4754ZM294.105 43.7758C294.976 42.5509 295.891 41.3802 296.852 40.2636L295.336 38.9594C294.334 40.1237 293.381 41.343 292.475 42.6172L294.105 43.7758ZM299.915 37.0298C300.989 36.0014 302.11 35.0287 303.278 34.1115L302.043 32.5384C300.824 33.4961 299.653 34.5118 298.532 35.5855L299.915 37.0298ZM306.912 31.5353C307.535 31.1368 308.171 30.7518 308.818 30.3802L307.822 28.6457C307.148 29.0329 306.485 29.4342 305.835 29.8498L306.912 31.5353ZM308.818 30.3802C309.316 30.0943 309.819 29.8177 310.325 29.5502L309.392 27.7813C308.864 28.0599 308.341 28.348 307.822 28.6457L308.818 30.3802ZM313.424 28.0546C314.472 27.5942 315.538 27.1705 316.622 26.7834L315.949 24.8999C314.821 25.3028 313.711 25.7439 312.62 26.2235L313.424 28.0546ZM319.902 25.7395C321 25.4314 322.116 25.1586 323.249 24.9211L322.839 22.9636C321.663 23.2102 320.504 23.4936 319.362 23.8139L319.902 25.7395ZM326.645 24.3224C327.772 24.1603 328.916 24.031 330.076 23.9347L329.91 21.9416C328.711 22.0411 327.528 22.1748 326.36 22.3428L326.645 24.3224ZM333.527 23.7469C334.1 23.7316 334.677 23.724 335.257 23.724V21.724C334.659 21.724 334.065 21.7318 333.474 21.7476L333.527 23.7469ZM335.257 23.724C335.838 23.724 336.414 23.7316 336.987 23.7469L337.04 21.7476C336.45 21.7318 335.855 21.724 335.257 21.724V23.724ZM340.439 23.9347C341.599 24.031 342.742 24.1603 343.869 24.3224L344.154 22.3428C342.987 22.1748 341.803 22.0411 340.604 21.9416L340.439 23.9347ZM347.265 24.9211C348.398 25.1586 349.514 25.4314 350.612 25.7395L351.152 23.8139C350.011 23.4936 348.852 23.2102 347.676 22.9636L347.265 24.9211ZM353.893 26.7834C354.977 27.1705 356.042 27.5942 357.09 28.0546L357.895 26.2235C356.803 25.7439 355.693 25.3028 354.565 24.8999L353.893 26.7834ZM360.189 29.5502C360.696 29.8177 361.198 30.0943 361.696 30.3802L362.692 28.6457C362.173 28.348 361.65 28.0599 361.122 27.7813L360.189 29.5502ZM361.696 30.3802C362.341 30.7501 362.973 31.1332 363.593 31.5297L364.67 29.8448C364.023 29.431 363.364 29.0313 362.692 28.6457L361.696 30.3802ZM367.203 34.0965C368.364 35.012 369.476 35.9828 370.538 37.0091L371.928 35.5706C370.817 34.4977 369.655 33.4828 368.441 32.5259L367.203 34.0965ZM373.567 40.2413C374.515 41.3586 375.416 42.5301 376.269 43.7559L377.91 42.6129C377.021 41.336 376.082 40.1141 375.092 38.9475L373.567 40.2413ZM378.639 47.5098C379.004 48.1484 379.359 48.7996 379.702 49.4634L381.478 48.5446C381.122 47.8564 380.755 47.1806 380.376 46.5174L378.639 47.5098ZM379.708 49.4754C380.003 50.0269 380.288 50.5845 380.563 51.1481L382.36 50.2705C382.075 49.685 381.778 49.1057 381.472 48.5326L379.708 49.4754ZM382.089 54.5822C382.554 55.7371 382.981 56.9156 383.37 58.1178L385.273 57.5017C384.87 56.2562 384.427 55.0341 383.945 53.8357L382.089 54.5822ZM384.41 61.7354C384.714 62.94 384.983 64.1668 385.216 65.4159L387.182 65.0481C386.941 63.7592 386.663 62.4918 386.349 61.2461L384.41 61.7354ZM385.801 69.1424C385.958 70.3746 386.083 71.6271 386.176 72.9L388.171 72.754C388.075 71.4462 387.947 70.158 387.785 68.8893L385.801 69.1424ZM386.357 76.6766C386.372 77.3028 386.379 77.9335 386.379 78.569H388.379C388.379 77.9182 388.372 77.2718 388.357 76.6299L386.357 76.6766ZM386.379 78.569C386.379 79.2085 386.372 79.8435 386.357 80.4741L388.356 80.5211C388.372 79.8746 388.379 79.224 388.379 78.569H386.379ZM386.174 84.2764C386.08 85.557 385.954 86.8181 385.795 88.0598L387.779 88.3132C387.942 87.0351 388.072 85.7383 388.169 84.4229L386.174 84.2764ZM385.207 91.8123C384.972 93.069 384.702 94.3047 384.397 95.5193L386.337 96.0065C386.652 94.7514 386.93 93.4757 387.173 92.1795L385.207 91.8123ZM383.356 99.1646C382.967 100.375 382.54 101.564 382.076 102.73L383.935 103.469C384.415 102.26 384.857 101.03 385.26 99.7764L383.356 99.1646ZM380.555 106.197C380.282 106.766 379.998 107.33 379.705 107.888L381.475 108.818C381.78 108.239 382.074 107.655 382.358 107.064L380.555 106.197ZM379.702 107.894C379.357 108.561 379.001 109.216 378.634 109.858L380.371 110.85C380.752 110.183 381.121 109.504 381.478 108.812L379.702 107.894ZM376.254 113.636C375.399 114.869 374.496 116.05 373.545 117.178L375.075 118.466C376.066 117.289 377.007 116.059 377.897 114.776L376.254 113.636ZM370.515 120.444C369.453 121.483 368.342 122.468 367.181 123.4L368.434 124.959C369.645 123.987 370.805 122.958 371.913 121.874L370.515 120.444ZM363.577 126.021C362.958 126.428 362.327 126.822 361.684 127.203L362.704 128.923C363.373 128.527 364.03 128.117 364.675 127.693L363.577 126.021ZM361.696 127.196C361.198 127.482 360.696 127.758 360.189 128.026L361.122 129.795C361.65 129.516 362.173 129.228 362.692 128.93L361.696 127.196ZM357.09 129.521C356.042 129.982 354.977 130.406 353.893 130.793L354.565 132.676C355.693 132.273 356.803 131.832 357.895 131.353L357.09 129.521ZM350.612 131.836C349.514 132.145 348.398 132.417 347.265 132.655L347.676 134.612C348.852 134.366 350.011 134.082 351.152 133.762L350.612 131.836ZM343.869 133.254C342.742 133.416 341.599 133.545 340.439 133.641L340.604 135.634C341.803 135.535 342.987 135.401 344.154 135.233L343.869 133.254ZM336.987 133.829C336.414 133.844 335.838 133.852 335.257 133.852V135.852C335.855 135.852 336.45 135.844 337.04 135.828L336.987 133.829ZM335.257 133.852C334.677 133.852 334.1 133.844 333.527 133.829L333.474 135.828C334.065 135.844 334.659 135.852 335.257 135.852V133.852ZM330.076 133.641C328.916 133.545 327.772 133.416 326.645 133.254L326.36 135.233C327.528 135.401 328.711 135.535 329.91 135.634L330.076 133.641ZM323.249 132.655C322.116 132.417 321 132.145 319.902 131.836L319.362 133.762C320.504 134.082 321.663 134.366 322.839 134.612L323.249 132.655ZM316.622 130.793C315.538 130.406 314.472 129.982 313.424 129.521L312.62 131.353C313.711 131.832 314.821 132.273 315.949 132.676L316.622 130.793ZM310.325 128.026C309.819 127.758 309.316 127.482 308.818 127.196L307.822 128.93C308.341 129.228 308.864 129.516 309.392 129.795L310.325 128.026ZM308.83 127.203C308.184 126.82 307.55 126.424 306.927 126.016L305.83 127.688C306.478 128.113 307.138 128.525 307.81 128.923L308.83 127.203ZM303.3 123.385C302.133 122.451 301.013 121.464 299.939 120.423L298.547 121.859C299.666 122.944 300.834 123.973 302.051 124.947L303.3 123.385ZM296.874 117.156C295.911 116.028 294.993 114.848 294.121 113.616L292.489 114.771C293.395 116.052 294.35 117.28 295.353 118.454L296.874 117.156ZM291.686 109.843C291.31 109.201 290.943 108.548 290.587 107.882L288.823 108.824C289.192 109.514 289.571 110.191 289.962 110.856L291.686 109.843ZM290.597 107.9C290.312 107.339 290.036 106.773 289.77 106.201L287.957 107.045C288.232 107.638 288.518 108.225 288.814 108.806L290.597 107.9ZM288.294 102.722C287.845 101.554 287.432 100.363 287.055 99.1494L285.145 99.7425C285.535 100.997 285.962 102.23 286.427 103.44L288.294 102.722ZM286.048 95.5011C285.754 94.2867 285.493 93.0511 285.266 91.7945L283.298 92.1496C283.532 93.4445 283.8 94.7188 284.105 95.9727L286.048 95.5011ZM284.698 88.0453C284.546 86.8052 284.424 85.5457 284.333 84.267L282.338 84.4084C282.431 85.7209 282.556 87.0148 282.714 88.2901L284.698 88.0453ZM284.157 80.4708C284.142 79.8413 284.135 79.2074 284.135 78.569H282.135C282.135 79.2223 282.142 79.8714 282.157 80.5162L284.157 80.4708ZM383.656 182.594L382.187 183.951L382.781 184.594H383.656V182.594ZM356.938 153.686L358.407 152.329L357.569 151.422L356.383 151.765L356.938 153.686ZM296.056 146.678L295.069 148.417L295.081 148.424L295.094 148.431L296.056 146.678ZM267.805 118.865L266.07 119.86L266.077 119.872L266.085 119.885L267.805 118.865ZM267.805 38.492L266.085 37.4724L266.08 37.4803L266.075 37.4882L267.805 38.492ZM296.056 10.898L297.027 12.6463L297.035 12.6423L296.056 10.898ZM374.458 10.898L373.471 12.6371L373.483 12.6443L373.496 12.6513L374.458 10.898ZM402.709 38.492L400.979 39.4958V39.4958L402.709 38.492ZM403.804 116.675L402.043 115.727L402.039 115.735L403.804 116.675ZM378.838 143.831L377.755 142.149L375.731 143.453L377.383 145.204L378.838 143.831ZM415.411 182.594V184.594H420.048L416.866 181.221L415.411 182.594ZM289.705 108.353L287.922 109.259L287.932 109.278L287.941 109.296L289.705 108.353ZM308.32 128.063L307.301 129.784L307.312 129.791L307.324 129.798L308.32 128.063ZM362.194 128.063L363.19 129.798L363.202 129.791L363.214 129.784L362.194 128.063ZM380.59 108.353L378.82 107.423L378.814 107.434L380.59 108.353ZM380.59 49.004L378.814 49.9228L378.82 49.9348L378.826 49.9467L380.59 49.004ZM362.194 29.513L361.198 31.2475L362.194 29.513ZM308.32 29.513L309.316 31.2475L308.32 29.513ZM289.705 49.004L287.941 48.0612L287.935 48.0732L287.929 48.0851L289.705 49.004ZM385.125 181.237L383.789 179.791L380.852 182.506L382.187 183.951L385.125 181.237ZM381.117 176.9L378.445 174.01L375.508 176.724L378.18 179.615L381.117 176.9ZM375.774 171.119L373.102 168.228L370.164 170.943L372.836 173.834L375.774 171.119ZM370.43 165.337L367.758 162.446L364.821 165.161L367.493 168.052L370.43 165.337ZM365.086 159.556L362.415 156.665L359.477 159.38L362.149 162.27L365.086 159.556ZM359.743 153.774L358.407 152.329L355.469 155.043L356.805 156.489L359.743 153.774ZM356.383 151.765C355.819 151.928 355.249 152.084 354.674 152.232L355.676 156.105C356.287 155.947 356.893 155.781 357.493 155.607L356.383 151.765ZM351.216 153.028C350.068 153.26 348.901 153.465 347.713 153.643L348.308 157.599C349.56 157.411 350.794 157.194 352.008 156.948L351.216 153.028ZM344.179 154.09C343.011 154.21 341.825 154.306 340.621 154.377L340.858 158.37C342.118 158.296 343.362 158.195 344.588 158.069L344.179 154.09ZM337.048 154.516C336.455 154.527 335.858 154.533 335.257 154.533V158.533C335.883 158.533 336.505 158.527 337.124 158.515L337.048 154.516ZM335.257 154.533C334.588 154.533 333.922 154.526 333.259 154.511L333.169 158.51C333.862 158.525 334.559 158.533 335.257 158.533V154.533ZM329.271 154.328C327.936 154.236 326.612 154.112 325.299 153.958L324.831 157.93C326.208 158.092 327.596 158.222 328.995 158.319L329.271 154.328ZM321.354 153.393C320.039 153.171 318.736 152.917 317.443 152.631L316.578 156.536C317.937 156.837 319.307 157.104 320.688 157.337L321.354 153.393ZM313.579 151.669C312.299 151.315 311.03 150.928 309.771 150.509L308.506 154.303C309.83 154.745 311.166 155.152 312.513 155.525L313.579 151.669ZM306.029 149.151C304.796 148.666 303.574 148.149 302.362 147.6L300.709 151.242C301.984 151.82 303.27 152.364 304.567 152.874L306.029 149.151ZM298.778 145.862C298.189 145.557 297.602 145.245 297.018 144.925L295.094 148.431C295.707 148.768 296.323 149.096 296.942 149.415L298.778 145.862ZM297.044 144.939C296.475 144.616 295.912 144.287 295.355 143.952L293.294 147.38C293.88 147.732 294.471 148.078 295.069 148.417L297.044 144.939ZM292.058 141.854C290.973 141.124 289.913 140.369 288.876 139.59L286.472 142.787C287.565 143.609 288.683 144.404 289.825 145.172L292.058 141.854ZM285.818 137.162C284.82 136.326 283.846 135.463 282.896 134.576L280.165 137.498C281.168 138.435 282.196 139.345 283.248 140.228L285.818 137.162ZM280.117 131.836C279.217 130.899 278.341 129.938 277.488 128.95L274.461 131.565C275.36 132.605 276.284 133.62 277.233 134.608L280.117 131.836ZM275.015 125.928C274.22 124.904 273.448 123.855 272.699 122.781L269.418 125.068C270.205 126.198 271.017 127.302 271.854 128.38L275.015 125.928ZM270.544 119.517C270.199 118.966 269.86 118.409 269.526 117.845L266.085 119.885C266.435 120.476 266.791 121.06 267.153 121.639L270.544 119.517ZM269.54 117.87C269.2 117.277 268.869 116.68 268.546 116.079L265.022 117.972C265.362 118.605 265.712 119.234 266.07 119.86L269.54 117.87ZM266.707 112.418C266.128 111.181 265.584 109.929 265.075 108.662L261.364 110.153C261.9 111.489 262.474 112.809 263.085 114.114L266.707 112.418ZM263.654 104.821C263.218 103.531 262.815 102.225 262.447 100.905L258.594 101.979C258.981 103.369 259.405 104.744 259.866 106.104L263.654 104.821ZM261.453 96.9276C261.159 95.5999 260.898 94.2575 260.671 92.9002L256.726 93.5613C256.965 94.9863 257.239 96.3969 257.548 97.7931L261.453 96.9276ZM260.095 88.8344C259.938 87.4842 259.812 86.1197 259.719 84.7409L255.728 85.0119C255.826 86.4536 255.957 87.8819 256.122 89.2968L260.095 88.8344ZM259.535 80.6296C259.52 79.9461 259.512 79.2593 259.512 78.569H255.512C255.512 79.2883 255.52 80.0045 255.536 80.7176L259.535 80.6296ZM259.512 78.569C259.512 77.8819 259.52 77.1984 259.535 76.5184L255.535 76.4308C255.52 77.1402 255.512 77.853 255.512 78.569H259.512ZM259.717 72.4273C259.81 71.0546 259.934 69.6969 260.09 68.3541L256.117 67.8924C255.954 69.2999 255.823 70.7215 255.726 72.1571L259.717 72.4273ZM260.663 64.3089C260.89 62.9579 261.149 61.6225 261.442 60.3026L257.538 59.4356C257.229 60.8246 256.956 62.2286 256.718 63.6478L260.663 64.3089ZM262.433 56.3464C262.801 55.0328 263.203 53.7351 263.639 52.4533L259.852 51.1641C259.392 52.5165 258.968 53.8849 258.581 55.2692L262.433 56.3464ZM265.06 48.6355C265.569 47.3762 266.114 46.1327 266.694 44.9048L263.077 43.1965C262.465 44.4928 261.89 45.8057 261.352 47.135L265.06 48.6355ZM268.537 41.2723C268.861 40.6763 269.194 40.0841 269.535 39.4958L266.075 37.4882C265.715 38.1088 265.364 38.7336 265.023 39.3625L268.537 41.2723ZM269.526 39.5116C269.858 38.9501 270.197 38.3949 270.54 37.8459L267.15 35.7236C266.789 36.3003 266.434 36.8832 266.085 37.4724L269.526 39.5116ZM272.689 34.5959C273.436 33.5258 274.206 32.4814 274.998 31.4626L271.841 29.0063C271.006 30.0802 270.195 31.1803 269.409 32.3065L272.689 34.5959ZM277.468 28.457C278.319 27.4751 279.195 26.5193 280.093 25.5898L277.218 22.8091C276.269 23.7908 275.345 24.7999 274.446 25.8362L277.468 28.457ZM282.871 22.8709C283.821 21.9905 284.795 21.1364 285.793 20.3083L283.239 17.2298C282.185 18.1045 281.156 19.0069 280.152 19.9369L282.871 22.8709ZM288.852 17.9085C289.889 17.1389 290.951 16.3948 292.036 15.6762L289.828 12.3407C288.684 13.0983 287.564 13.8833 286.469 14.6957L288.852 17.9085ZM295.337 13.6139C295.895 13.2852 296.458 12.9626 297.027 12.6463L295.085 9.14967C294.486 9.48241 293.893 9.82179 293.306 10.1678L295.337 13.6139ZM297.035 12.6423C297.617 12.3158 298.201 11.9976 298.788 11.6876L296.92 8.15067C296.303 8.47652 295.689 8.81087 295.078 9.1537L297.035 12.6423ZM302.362 9.91534C303.571 9.35418 304.791 8.82643 306.022 8.33205L304.531 4.6204C303.235 5.14098 301.951 5.69651 300.678 6.28698L302.362 9.91534ZM309.759 6.94435C311.017 6.51504 312.285 6.11929 313.564 5.7571L312.475 1.90835C311.127 2.28983 309.791 2.70667 308.467 3.15889L309.759 6.94435ZM317.428 4.77294C318.721 4.47969 320.025 4.2195 321.34 3.99238L320.659 0.0507355C319.276 0.289589 317.904 0.563354 316.543 0.872055L317.428 4.77294ZM325.288 3.4139C326.602 3.25525 327.927 3.12856 329.263 3.03387L328.981 -0.956116C327.58 -0.856834 326.189 -0.7239 324.809 -0.557266L325.288 3.4139ZM333.256 2.84702C333.921 2.83167 334.588 2.82399 335.257 2.82399V-1.17601C334.557 -1.17601 333.859 -1.16798 333.164 -1.15192L333.256 2.84702ZM335.257 2.82399C335.928 2.82399 336.595 2.83153 337.26 2.84659L337.35 -1.15238C336.655 -1.16814 335.958 -1.17601 335.257 -1.17601V2.82399ZM341.255 3.03033C342.593 3.12363 343.919 3.24853 345.233 3.40498L345.706 -0.566948C344.327 -0.731216 342.936 -0.862206 341.533 -0.959984L341.255 3.03033ZM349.183 3.97688C350.501 4.20197 351.805 4.45998 353.097 4.75087L353.976 0.848572C352.615 0.542259 351.242 0.27076 349.857 0.0340347L349.183 3.97688ZM356.962 5.72974C358.243 6.0909 359.511 6.48573 360.767 6.91421L362.059 3.12849C360.734 2.67669 359.397 2.26047 358.047 1.87982L356.962 5.72974ZM364.502 8.30277C365.733 8.79865 366.951 9.32825 368.157 9.89163L369.85 6.26753C368.579 5.67379 367.295 5.11548 365.997 4.59263L364.502 8.30277ZM371.723 11.6748C372.309 11.9873 372.891 12.308 373.471 12.6371L375.446 9.15887C374.836 8.81257 374.223 8.47493 373.607 8.14594L371.723 11.6748ZM373.496 12.6513C374.068 12.9651 374.633 13.2849 375.193 13.6108L377.206 10.1544C376.617 9.81125 376.022 9.47468 375.42 9.14465L373.496 12.6513ZM378.505 15.6577C379.596 16.3721 380.661 17.1116 381.701 17.8764L384.071 14.6538C382.972 13.8459 381.847 13.0652 380.697 12.3117L378.505 15.6577ZM384.769 20.2654C385.771 21.0912 386.747 21.943 387.698 22.8208L390.411 19.8819C389.405 18.9531 388.373 18.0522 387.313 17.1789L384.769 20.2654ZM390.478 25.5364C391.377 26.4663 392.252 27.4223 393.101 28.4046L396.127 25.7888C395.229 24.7501 394.304 23.7388 393.352 22.7551L390.478 25.5364ZM395.561 31.4158C396.35 32.4376 397.115 33.4852 397.855 34.5587L401.148 32.2886C400.367 31.1563 399.561 30.0505 398.727 28.9712L395.561 31.4158ZM399.98 37.8221C400.319 38.3737 400.652 38.9316 400.979 39.4958L404.439 37.4882C404.095 36.8949 403.744 36.3079 403.387 35.7272L399.98 37.8221ZM400.979 39.4958C401.321 40.0841 401.653 40.6763 401.977 41.2723L405.492 39.3625C405.15 38.7336 404.799 38.1088 404.439 37.4882L400.979 39.4958ZM403.82 44.9048C404.4 46.1327 404.945 47.3762 405.455 48.6355L409.162 47.135C408.624 45.8057 408.049 44.4928 407.437 43.1965L403.82 44.9048ZM406.875 52.4533C407.312 53.7351 407.714 55.0328 408.081 56.3464L411.933 55.2692C411.546 53.8849 411.122 52.5165 410.662 51.1641L406.875 52.4533ZM409.072 60.3026C409.365 61.6225 409.625 62.9579 409.851 64.3089L413.796 63.6478C413.558 62.2286 413.285 60.8246 412.977 59.4356L409.072 60.3026ZM410.424 68.3541C410.58 69.6969 410.705 71.0546 410.797 72.4273L414.788 72.1571C414.691 70.7215 414.561 69.2999 414.397 67.8924L410.424 68.3541ZM410.98 76.5184C410.995 77.1984 411.002 77.8819 411.002 78.569H415.002C415.002 77.853 414.994 77.1402 414.979 76.4307L410.98 76.5184ZM411.002 78.569C411.002 79.2186 410.995 79.8651 410.982 80.5085L414.981 80.5921C414.995 79.9205 415.002 79.2462 415.002 78.569H411.002ZM410.818 84.379C410.734 85.6768 410.622 86.9618 410.482 88.234L414.458 88.6721C414.605 87.3387 414.722 85.9933 414.81 84.6358L410.818 84.379ZM409.969 92.0652C409.766 93.3448 409.533 94.6109 409.271 95.8638L413.186 96.6834C413.462 95.3657 413.706 94.0349 413.919 92.6913L409.969 92.0652ZM408.385 99.6201C408.057 100.868 407.698 102.103 407.308 103.324L411.119 104.54C411.53 103.253 411.908 101.952 412.253 100.637L408.385 99.6201ZM406.04 106.964C405.585 108.167 405.098 109.356 404.581 110.532L408.242 112.143C408.788 110.903 409.301 109.648 409.781 108.379L406.04 106.964ZM402.935 114.017C402.646 114.59 402.348 115.16 402.043 115.727L405.565 117.623C405.887 117.026 406.2 116.425 406.505 115.82L402.935 114.017ZM402.039 115.735C401.753 116.272 401.462 116.803 401.165 117.329L404.65 119.293C404.962 118.739 405.269 118.18 405.57 117.615L402.039 115.735ZM399.306 120.448C398.658 121.477 397.988 122.483 397.295 123.468L400.567 125.769C401.299 124.728 402.006 123.666 402.69 122.581L399.306 120.448ZM395.133 126.38C394.387 127.334 393.617 128.265 392.824 129.175L395.84 131.803C396.679 130.84 397.493 129.855 398.283 128.847L395.133 126.38ZM390.372 131.844C389.533 132.711 388.669 133.556 387.783 134.38L390.506 137.31C391.444 136.439 392.357 135.544 393.246 134.627L390.372 131.844ZM385.064 136.779C384.14 137.552 383.194 138.304 382.224 139.035L384.632 142.229C385.655 141.458 386.655 140.663 387.631 139.846L385.064 136.779ZM379.271 141.147C378.772 141.486 378.266 141.82 377.755 142.149L379.921 145.513C380.459 145.166 380.991 144.814 381.518 144.457L379.271 141.147ZM377.383 145.204L378.69 146.588L381.599 143.843L380.293 142.458L377.383 145.204ZM381.302 149.357L383.914 152.125L386.824 149.38L384.211 146.612L381.302 149.357ZM386.527 154.894L389.139 157.663L392.048 154.918L389.436 152.149L386.527 154.894ZM391.751 160.432L394.364 163.201L397.273 160.456L394.661 157.687L391.751 160.432ZM396.976 165.969L399.589 168.738L402.498 165.993L399.886 163.224L396.976 165.969ZM402.201 171.507L404.813 174.276L407.723 171.531L405.11 168.762L402.201 171.507ZM407.426 177.045L410.038 179.813L412.947 177.068L410.335 174.299L407.426 177.045ZM412.65 182.582L413.956 183.967L416.866 181.221L415.56 179.837L412.65 182.582ZM415.411 180.594H413.426V184.594H415.411V180.594ZM409.457 180.594H405.488V184.594H409.457V180.594ZM401.518 180.594H397.549V184.594H401.518V180.594ZM393.58 180.594H389.61V184.594H393.58V180.594ZM385.641 180.594H383.656V184.594H385.641V180.594ZM285.135 78.569C285.135 77.9421 285.142 77.3199 285.156 76.7025L281.157 76.6123C281.142 77.2602 281.135 77.9124 281.135 78.569H285.135ZM285.328 72.9801C285.417 71.7258 285.536 70.4923 285.685 69.2794L281.715 68.7903C281.557 70.0739 281.432 71.3765 281.338 72.6981L285.328 72.9801ZM286.241 65.6118C286.463 64.3822 286.718 63.1752 287.007 61.9907L283.121 61.0437C282.813 62.308 282.541 63.5937 282.305 64.9006L286.241 65.6118ZM287.995 58.4319C288.365 57.2483 288.771 56.0886 289.213 54.9527L285.485 53.503C285.01 54.7243 284.574 55.9692 284.177 57.2376L287.995 58.4319ZM290.666 51.5712C290.929 51.0157 291.201 50.4662 291.482 49.9228L287.929 48.0851C287.626 48.6714 287.332 49.2639 287.05 49.8626L290.666 51.5712ZM291.469 49.9467C291.817 49.2957 292.175 48.6574 292.543 48.0315L289.095 46.0044C288.699 46.6776 288.314 47.3632 287.941 48.0612L291.469 49.9467ZM294.921 44.3551C295.774 43.1549 296.67 42.0085 297.61 40.9157L294.577 38.3073C293.556 39.4954 292.583 40.7391 291.66 42.0379L294.921 44.3551ZM300.607 37.752C301.657 36.7463 302.753 35.795 303.896 34.898L301.426 31.7518C300.18 32.7298 298.985 33.767 297.84 34.8633L300.607 37.752ZM307.45 32.378C308.06 31.9881 308.682 31.6113 309.316 31.2475L307.324 27.7785C306.637 28.1734 305.961 28.5829 305.297 29.0071L307.45 32.378ZM309.316 31.2475C309.804 30.9675 310.296 30.6966 310.792 30.4347L308.925 26.8969C308.387 27.181 307.853 27.4749 307.324 27.7785L309.316 31.2475ZM313.826 28.9701C314.852 28.5193 315.896 28.1043 316.958 27.7252L315.613 23.9581C314.462 24.3689 313.331 24.8188 312.217 25.3079L313.826 28.9701ZM320.173 26.7023C321.249 26.4004 322.343 26.1328 323.454 25.8998L322.634 21.9849C321.436 22.236 320.255 22.5247 319.092 22.8511L320.173 26.7023ZM326.788 25.3122C327.894 25.153 329.018 25.026 330.158 24.9313L329.828 20.945C328.609 21.0462 327.406 21.1821 326.218 21.353L326.788 25.3122ZM333.554 24.7465C334.118 24.7315 334.685 24.724 335.257 24.724V20.724C334.65 20.724 334.047 20.732 333.447 20.7479L333.554 24.7465ZM335.257 24.724C335.829 24.724 336.397 24.7315 336.961 24.7465L337.067 20.7479C336.467 20.732 335.864 20.724 335.257 20.724V24.724ZM340.356 24.9313C341.496 25.026 342.62 25.153 343.727 25.3122L344.296 21.353C343.109 21.1821 341.906 21.0462 340.687 20.945L340.356 24.9313ZM347.06 25.8998C348.172 26.1328 349.266 26.4004 350.342 26.7023L351.422 22.8511C350.259 22.5247 349.079 22.236 347.881 21.9849L347.06 25.8998ZM353.556 27.7252C354.618 28.1043 355.662 28.5193 356.688 28.9701L358.297 25.3079C357.184 24.8188 356.052 24.3689 354.901 23.9581L353.556 27.7252ZM359.722 30.4347C360.219 30.6966 360.711 30.9675 361.198 31.2475L363.19 27.7785C362.661 27.4749 362.127 27.181 361.589 26.8969L359.722 30.4347ZM361.198 31.2475C361.829 31.6095 362.447 31.9844 363.054 32.3722L365.209 29.0024C364.548 28.5799 363.875 28.1719 363.19 27.7785L361.198 31.2475ZM366.584 34.8818C367.719 35.7765 368.805 36.7253 369.844 37.7283L372.623 34.8513C371.488 33.7552 370.3 32.7183 369.06 31.7407L366.584 34.8818ZM372.804 40.8882C373.731 41.9809 374.613 43.1272 375.449 44.3274L378.731 42.0414C377.824 40.7389 376.865 39.4918 375.855 38.3006L372.804 40.8882ZM377.771 48.006C378.129 48.6323 378.477 49.2712 378.814 49.9228L382.367 48.0851C382.004 47.3847 381.63 46.6967 381.244 46.0212L377.771 48.006ZM378.826 49.9467C379.115 50.4875 379.395 51.0342 379.665 51.587L383.259 49.8316C382.968 49.2352 382.666 48.6451 382.354 48.0612L378.826 49.9467ZM381.162 54.9554C381.618 56.0885 382.037 57.2453 382.419 58.4259L386.224 57.1937C385.814 55.9264 385.364 54.6827 384.873 53.4625L381.162 54.9554ZM383.44 61.98C383.739 63.1641 384.003 64.3706 384.233 65.5998L388.165 64.8642C387.92 63.5553 387.638 62.2677 387.319 61.0015L383.44 61.98ZM384.809 69.2689C384.964 70.4828 385.087 71.7175 385.179 72.973L389.168 72.681C389.071 71.3558 388.941 70.0497 388.777 68.7627L384.809 69.2689ZM385.358 76.7C385.372 77.3182 385.379 77.9412 385.379 78.569H389.379C389.379 77.9105 389.372 77.2564 389.356 76.6065L385.358 76.7ZM385.379 78.569C385.379 79.2008 385.372 79.828 385.357 80.4506L389.356 80.5446C389.372 79.8902 389.379 79.2317 389.379 78.569H385.379ZM385.177 84.2031C385.084 85.4663 384.959 86.7096 384.803 87.9331L388.771 88.4399C388.936 87.1436 389.068 85.829 389.166 84.4962L385.177 84.2031ZM384.224 91.6286C383.993 92.8657 383.727 94.0814 383.427 95.2757L387.306 96.2501C387.627 94.9748 387.91 93.6791 388.156 92.3631L384.224 91.6286ZM382.404 98.8587C382.021 100.048 381.602 101.215 381.147 102.36L384.864 103.839C385.353 102.609 385.802 101.357 386.212 100.082L382.404 98.8587ZM379.654 105.763C379.386 106.322 379.107 106.875 378.82 107.423L382.361 109.283C382.67 108.694 382.97 108.099 383.259 107.498L379.654 105.763ZM378.814 107.434C378.475 108.089 378.126 108.732 377.766 109.362L381.239 111.346C381.627 110.667 382.003 109.975 382.367 109.272L378.814 107.434ZM375.433 113.066C374.594 114.274 373.71 115.43 372.78 116.534L375.84 119.11C376.851 117.909 377.811 116.655 378.719 115.346L375.433 113.066ZM369.815 119.729C368.777 120.745 367.69 121.709 366.555 122.621L369.06 125.739C370.296 124.746 371.48 123.696 372.612 122.589L369.815 119.729ZM363.028 125.186C362.422 125.584 361.804 125.969 361.175 126.342L363.214 129.784C363.896 129.379 364.566 128.961 365.224 128.529L363.028 125.186ZM361.198 126.328C360.711 126.608 360.219 126.879 359.722 127.141L361.589 130.679C362.127 130.395 362.661 130.101 363.19 129.798L361.198 126.328ZM356.688 128.606C355.662 129.057 354.618 129.472 353.556 129.851L354.901 133.618C356.052 133.207 357.184 132.757 358.297 132.268L356.688 128.606ZM350.342 130.874C349.266 131.176 348.172 131.443 347.06 131.676L347.881 135.591C349.079 135.34 350.259 135.051 351.422 134.725L350.342 130.874ZM343.727 132.264C342.62 132.423 341.496 132.55 340.356 132.645L340.687 136.631C341.906 136.53 343.109 136.394 344.296 136.223L343.727 132.264ZM336.961 132.829C336.397 132.844 335.829 132.852 335.257 132.852V136.852C335.864 136.852 336.467 136.844 337.067 136.828L336.961 132.829ZM335.257 132.852C334.685 132.852 334.118 132.844 333.554 132.829L333.447 136.828C334.047 136.844 334.65 136.852 335.257 136.852V132.852ZM330.158 132.645C329.018 132.55 327.894 132.423 326.788 132.264L326.218 136.223C327.406 136.394 328.609 136.53 329.828 136.631L330.158 132.645ZM323.454 131.676C322.343 131.443 321.249 131.176 320.173 130.874L319.092 134.725C320.255 135.051 321.436 135.34 322.634 135.591L323.454 131.676ZM316.958 129.851C315.896 129.472 314.852 129.057 313.826 128.606L312.217 132.268C313.331 132.757 314.462 133.207 315.613 133.618L316.958 129.851ZM310.792 127.141C310.296 126.879 309.804 126.608 309.316 126.328L307.324 129.798C307.853 130.101 308.387 130.395 308.925 130.679L310.792 127.141ZM309.34 126.342C308.707 125.967 308.086 125.58 307.476 125.18L305.281 128.524C305.943 128.958 306.616 129.378 307.301 129.784L309.34 126.342ZM303.925 122.604C302.782 121.69 301.686 120.724 300.636 119.706L297.851 122.577C298.992 123.684 300.184 124.734 301.426 125.728L303.925 122.604ZM297.634 116.506C296.691 115.402 295.792 114.246 294.937 113.038L291.672 115.349C292.596 116.654 293.57 117.906 294.592 119.103L297.634 116.506ZM292.549 109.337C292.179 108.707 291.819 108.065 291.469 107.41L287.941 109.296C288.316 109.997 288.702 110.686 289.099 111.362L292.549 109.337ZM291.488 107.447C291.208 106.896 290.938 106.341 290.676 105.779L287.05 107.467C287.331 108.07 287.622 108.668 287.922 109.259L291.488 107.447ZM289.228 102.363C288.786 101.215 288.38 100.045 288.01 98.8529L284.19 100.039C284.586 101.314 285.021 102.568 285.494 103.799L289.228 102.363ZM287.02 95.2654C286.73 94.0706 286.474 92.8545 286.25 91.617L282.314 92.3271C282.551 93.6411 282.824 94.9349 283.133 96.2085L287.02 95.2654ZM285.691 87.9229C285.54 86.7004 285.42 85.4582 285.33 84.1962L281.341 84.4792C281.435 85.8085 281.562 87.1196 281.721 88.4125L285.691 87.9229ZM285.156 80.4482C285.142 79.8263 285.135 79.1999 285.135 78.569H281.135C281.135 79.2298 281.143 79.8864 281.157 80.5389L285.156 80.4482Z" fill="white" fill-opacity="0.26" mask="url(#path-1-outside-1_1_1220)"/>
</svg>
