<svg width="13" height="29" viewBox="0 0 13 29" fill="none" xmlns="http://www.w3.org/2000/svg">
<mask id="path-1-outside-1_1_1229" maskUnits="userSpaceOnUse" x="-1" y="-1" width="15" height="31" fill="black">
<rect fill="white" x="-1" y="-1" width="15" height="31"/>
<path d="M0.702 7.667V0.491H12.714V29H4.719V7.667H0.702Z"/>
</mask>
<path d="M0.702 7.667V0.491H12.714V29H4.719V7.667H0.702Z" fill="#D9D9D9"/>
<path d="M0.702 7.667H-0.298V8.667H0.702V7.667ZM0.702 0.491V-0.509H-0.298V0.491H0.702ZM12.714 0.491H13.714V-0.509H12.714V0.491ZM12.714 29V30H13.714V29H12.714ZM4.719 29H3.719V30H4.719V29ZM4.719 7.667H5.719V6.667H4.719V7.667ZM1.702 7.667V0.491H-0.298V7.667H1.702ZM0.702 1.491H12.714V-0.509H0.702V1.491ZM11.714 0.491V29H13.714V0.491H11.714ZM12.714 28H4.719V30H12.714V28ZM5.719 29V7.667H3.719V29H5.719ZM4.719 6.667H0.702V8.667H4.719V6.667Z" fill="white" mask="url(#path-1-outside-1_1_1229)"/>
</svg>
