<svg width="50" height="50" viewBox="0 0 50 50" fill="none" xmlns="http://www.w3.org/2000/svg">
<rect x="0.5" y="0.5" width="49" height="49" stroke="black"/>
<path d="M25.0002 4.16663C36.4794 4.16663 45.8335 13.5208 45.8335 25C45.8335 36.5 36.4794 45.8333 25.0002 45.8333L24.4174 45.8253C13.1865 45.5163 4.16687 36.305 4.16687 25C4.16687 13.5208 13.5002 4.16663 25.0002 4.16663ZM22.0002 16.2083C21.5835 16.2083 21.1877 16.3541 20.8752 16.6666C20.271 17.2916 20.271 18.2708 20.896 18.875L27.0419 25L20.896 31.125C20.271 31.7291 20.271 32.7291 20.8752 33.3333C21.5002 33.9583 22.4794 33.9583 23.0835 33.3333L30.3544 26.1041C30.646 25.8125 30.8127 25.4166 30.8127 25C30.8127 24.5833 30.646 24.1875 30.3544 23.8958L23.0835 16.6666C22.7919 16.3541 22.396 16.2083 22.0002 16.2083Z" fill="white"/>
</svg>
