<svg width="21" height="31" viewBox="0 0 21 31" fill="none" xmlns="http://www.w3.org/2000/svg">
<path d="M13.054 9.681C12.872 8.797 12.573 8.147 12.157 7.731C11.741 7.315 11.13 7.107 10.324 7.107C9.102 7.107 8.244 7.679 7.75 8.823C7.282 9.967 7.035 11.761 7.009 14.205C7.529 13.399 8.283 12.762 9.271 12.294C10.259 11.826 11.351 11.592 12.547 11.592C15.069 11.592 17.084 12.372 18.592 13.932C20.126 15.492 20.893 17.728 20.893 20.64C20.893 22.564 20.49 24.254 19.684 25.71C18.904 27.14 17.76 28.245 16.252 29.025C14.77 29.805 13.015 30.195 10.987 30.195C6.957 30.195 4.149 28.947 2.563 26.451C1.003 23.929 0.223 20.367 0.223 15.765C0.223 10.669 1.055 6.925 2.719 4.533C4.383 2.141 7.061 0.944997 10.753 0.944997C13.743 0.944997 16.005 1.79 17.539 3.48C19.099 5.144 19.97 7.211 20.152 9.681H13.054ZM10.675 17.52C9.765 17.52 9.011 17.78 8.413 18.3C7.841 18.82 7.555 19.561 7.555 20.523C7.555 21.537 7.828 22.317 8.374 22.863C8.92 23.409 9.7 23.682 10.714 23.682C11.65 23.682 12.378 23.422 12.898 22.902C13.444 22.356 13.717 21.589 13.717 20.601C13.717 19.639 13.444 18.885 12.898 18.339C12.378 17.793 11.637 17.52 10.675 17.52Z" fill="#D9D9D9"/>
</svg>
