<svg width="1437" height="793" viewBox="0 0 1437 793" fill="none" xmlns="http://www.w3.org/2000/svg">
<path d="M-139.41 -79L-139.41 1226M77.2659 -79L77.2658 1226M293.942 -79L293.942 1226M510.618 -79L510.618 1226M727.295 -79L727.295 1226M943.971 -79V1226M1160.65 -79L1160.65 1226M1377.32 -79L1377.32 1226M1594 -79L1594 1226M-140 1189.51H1593.41M-140 984.202H1593.41M-140 778.893L1593.41 778.893M-140 573.583L1593.41 573.583M-140 368.273L1593.41 368.273M-140 162.963L1593.41 162.964M-140 -42.3463L1593.41 -42.3462" stroke="url(#paint0_radial_1_1099)" stroke-opacity="0.4"/>
<defs>
<radialGradient id="paint0_radial_1_1099" cx="0" cy="0" r="1" gradientUnits="userSpaceOnUse" gradientTransform="translate(727 573.5) rotate(90) scale(652.5 867)">
<stop stop-color="white"/>
<stop offset="1" stop-color="white" stop-opacity="0"/>
</radialGradient>
</defs>
</svg>
