<svg width="21" height="31" viewBox="0 0 21 31" fill="none" xmlns="http://www.w3.org/2000/svg">
<path d="M0.872 9.993C0.976 7.055 1.886 4.806 3.602 3.246C5.318 1.66 7.71 0.866998 10.778 0.866998C12.78 0.866998 14.483 1.218 15.887 1.92C17.317 2.596 18.396 3.532 19.124 4.728C19.852 5.898 20.216 7.224 20.216 8.706C20.216 10.474 19.787 11.891 18.929 12.957C18.071 13.997 17.096 14.699 16.004 15.063V15.219C19.15 16.389 20.723 18.625 20.723 21.927C20.723 23.565 20.346 25.008 19.592 26.256C18.838 27.504 17.746 28.479 16.316 29.181C14.886 29.883 13.183 30.234 11.207 30.234C7.957 30.234 5.383 29.454 3.485 27.894C1.613 26.308 0.638 23.89 0.56 20.64H8.009C7.957 21.68 8.178 22.486 8.672 23.058C9.166 23.63 9.907 23.916 10.895 23.916C11.649 23.916 12.234 23.682 12.65 23.214C13.092 22.746 13.313 22.122 13.313 21.342C13.313 20.354 12.988 19.626 12.338 19.158C11.714 18.69 10.687 18.456 9.257 18.456H7.892V12.255H9.218C10.206 12.281 11.038 12.125 11.714 11.787C12.416 11.423 12.767 10.708 12.767 9.642C12.767 8.836 12.572 8.238 12.182 7.848C11.792 7.432 11.259 7.224 10.583 7.224C9.829 7.224 9.27 7.497 8.906 8.043C8.568 8.563 8.373 9.213 8.321 9.993H0.872Z" fill="#D9D9D9"/>
</svg>
