<svg width="21" height="30" viewBox="0 0 21 30" fill="none" xmlns="http://www.w3.org/2000/svg">
<path d="M0.287 23.877C2.809 21.901 4.876 20.198 6.488 18.768C8.1 17.338 9.452 15.869 10.544 14.361C11.636 12.827 12.182 11.371 12.182 9.993C12.182 9.161 11.987 8.511 11.597 8.043C11.233 7.575 10.687 7.341 9.959 7.341C9.205 7.341 8.62 7.666 8.204 8.316C7.788 8.94 7.593 9.863 7.619 11.085H0.209C0.287 8.771 0.794 6.86 1.73 5.352C2.666 3.818 3.888 2.7 5.396 1.998C6.904 1.27 8.581 0.905998 10.427 0.905998C13.625 0.905998 16.004 1.699 17.564 3.285C19.124 4.871 19.904 6.925 19.904 9.447C19.904 12.151 18.994 14.686 17.174 17.052C15.38 19.418 13.131 21.537 10.427 23.409H20.177V29.61H0.287V23.877Z" fill="#D9D9D9"/>
</svg>
